<?xml version="1.0" encoding="utf-8"?>
<!-- Generator: Adobe Illustrator 25.0.0, SVG Export Plug-In . SVG Version: 6.00 Build 0)  -->
<svg version="1.1" id="Livello_1" xmlns="http://www.w3.org/2000/svg" xmlns:xlink="http://www.w3.org/1999/xlink" x="0px" y="0px"
	 viewBox="0 0 580.2 202.9" style="enable-background:new 0 0 580.2 202.9;" xml:space="preserve">
<style type="text/css">
	.st0{fill:none;}
	.st1{fill:#66B764;}
	.st2{fill:#7ABD6D;}
	.st3{fill:#EA5565;}
	.st4{fill:#FCCE58;}
	.st5{fill:#4FAD57;}
	.st6{fill:#C69F46;}
	.st7{fill:#42934A;}
	.st8{fill:#AD8B3D;}
	.st9{fill:#9C3A49;}
	.st10{fill:#377A3D;}
	.st11{fill:#E5E7EB;}
</style>
<line class="st0" x1="120" y1="-7" x2="119.7" y2="233"/>
<path class="st1" d="M64.5,79.2c1.6-2.6,3.4-5.2,5.4-7.5l-7.6-6.4c-2.3,2.8-4.5,5.8-6.4,9L64.5,79.2z"/>
<path class="st1" d="M79.3,62.3c2.4-1.9,4.9-3.7,7.6-5.3l-5-8.7c-3.2,1.9-6.2,4-9,6.2L79.3,62.3z"/>
<path class="st1" d="M59.5,89.2c1.1-2.9,2.5-5.7,4-8.4l-8.6-5c-1.8,3.2-3.4,6.5-4.7,9.9L59.5,89.2z"/>
<path class="st1" d="M109.8,48.8c3-0.5,6.1-0.7,9.2-0.8V38c-3.7,0-7.4,0.4-10.9,0.9L109.8,48.8z"/>
<path class="st1" d="M88.6,56.1c2.7-1.5,5.5-2.8,8.4-3.9l-3.4-9.4c-3.4,1.3-6.8,2.8-10,4.6L88.6,56.1z"/>
<path class="st1" d="M58.8,91.1l-9.4-3.4c-0.9,2.5-1.7,5.1-2.3,7.8c3.4-0.7,7-1,10.6-1.1C58,93.3,58.4,92.2,58.8,91.1z"/>
<path class="st1" d="M71.2,70.1c2-2.3,4.2-4.5,6.6-6.5l-6.4-7.7c-2.8,2.4-5.4,5-7.8,7.7L71.2,70.1z"/>
<path class="st1" d="M98.9,51.5c2.9-1,5.9-1.8,8.9-2.3l-1.7-9.9c-3.6,0.7-7.2,1.6-10.6,2.8L98.9,51.5z"/>
<path class="st2" d="M96.1,69.1c0.2-0.1,0.4-0.2,0.6-0.3c0.4-0.2,0.8-0.4,1.2-0.6c0.3-0.1,0.5-0.3,0.8-0.4c0.4-0.2,0.9-0.4,1.3-0.6
	c0.2-0.1,0.5-0.2,0.7-0.3c0.5-0.2,0.9-0.4,1.4-0.5L98.7,57c-2.6,1-5.1,2.2-7.6,3.5L96.1,69.1z"/>
<path class="st2" d="M129.3,53.7c-2.7-0.4-5.5-0.6-8.3-0.7v10c2.2,0,4.4,0.2,6.6,0.5L129.3,53.7z"/>
<path class="st2" d="M73.6,94.4c0-0.1,0.1-0.1,0.1-0.2c0.2-0.4,0.4-0.9,0.6-1.3c0.1-0.2,0.2-0.4,0.3-0.6c0.2-0.4,0.4-0.9,0.6-1.3
	c0-0.1,0.1-0.2,0.1-0.2c0.4-0.8,0.8-1.5,1.2-2.3l-8.7-5c-1.4,2.4-2.6,5-3.6,7.6L73.6,94.4z"/>
<path class="st2" d="M77.5,86.7c0.1-0.1,0.2-0.3,0.2-0.4c0.1-0.2,0.3-0.4,0.4-0.6c0.2-0.4,0.5-0.8,0.8-1.1c0.1-0.2,0.3-0.4,0.4-0.6
	c0.7-0.9,1.3-1.8,2.1-2.7l-7.7-6.4c-1.8,2.2-3.4,4.4-4.9,6.8L77.5,86.7z"/>
<path class="st2" d="M88.9,73.9c0.3-0.2,0.5-0.4,0.8-0.6s0.6-0.4,0.9-0.6s0.6-0.4,0.9-0.7c0.3-0.2,0.5-0.4,0.8-0.6
	c0.4-0.3,0.9-0.6,1.3-0.8c0.2-0.2,0.5-0.3,0.7-0.4l-5-8.7c-2.4,1.4-4.7,3-6.9,4.8L88.9,73.9z"/>
<path class="st2" d="M110.6,53.8l1.7,9.9c0.2,0,0.4,0,0.5-0.1c0.6-0.1,1.1-0.2,1.7-0.2c0.3,0,0.5-0.1,0.8-0.1
	c0.5-0.1,1.1-0.1,1.6-0.1c0.2,0,0.5,0,0.7,0c0.4,0,0.8,0,1.3,0v-10C116.1,53.1,113.3,53.3,110.6,53.8z"/>
<path class="st2" d="M63.5,92.9c-0.2,0.6-0.4,1.1-0.6,1.7c3.2,0.2,6.3,0.7,9.3,1.5L63.5,92.9z"/>
<path class="st2" d="M82.6,79.8L82.6,79.8c0.3-0.3,0.6-0.6,0.8-0.9c0.2-0.2,0.4-0.4,0.6-0.7c0.3-0.3,0.6-0.6,0.9-0.9
	c0.2-0.2,0.5-0.5,0.7-0.7c0.4-0.4,0.9-0.8,1.3-1.2c0.1-0.1,0.2-0.2,0.4-0.3l-6.4-7.7c-2.1,1.8-4.1,3.8-6,5.9L82.6,79.8z"/>
<path class="st2" d="M104,65.7c0.3-0.1,0.6-0.2,0.9-0.3c0.3-0.1,0.5-0.2,0.8-0.2c0.5-0.1,1-0.3,1.4-0.4c0.3-0.1,0.5-0.1,0.8-0.2
	c0.6-0.1,1.2-0.3,1.7-0.4c0.2,0,0.3-0.1,0.5-0.1c0.1,0,0.2,0,0.4-0.1l-1.7-9.9c-2.8,0.5-5.5,1.2-8.1,2.1L104,65.7z"/>
<path class="st2" d="M129.5,63.9c2.2,0.4,4.3,1,6.4,1.7l3.4-9.4c-2.6-0.9-5.3-1.6-8.1-2.1L129.5,63.9z"/>
<path class="st3" d="M170,113.4c0,0.6,0,1.3,0,1.9c0,0.4,0,0.8-0.1,1.1c0,0.4,0,0.7-0.1,1.1c0,0.5-0.1,1-0.2,1.5
	c0,0.2,0,0.4-0.1,0.5c0,0.2-0.1,0.4-0.1,0.6l9.8,1.7c0.4-2.8,0.7-5.6,0.7-8.5L170,113.4z"/>
<path class="st4" d="M137.8,66.3c2.1,0.8,4.1,1.7,6,2.8l5-8.7c-2.4-1.3-5-2.5-7.6-3.5L137.8,66.3z"/>
<path class="st3" d="M169.3,104.7c0.4,2.2,0.6,4.4,0.7,6.7h10c-0.1-2.9-0.3-5.7-0.8-8.4L169.3,104.7z"/>
<path class="st4" d="M145.5,70c1.9,1.1,3.7,2.4,5.5,3.8l6.4-7.7c-2.2-1.7-4.5-3.3-6.9-4.8L145.5,70z"/>
<path class="st4" d="M157.3,79.7l7.7-6.4c-1.9-2.1-3.9-4.1-6-5.9l-6.4,7.6C154.2,76.5,155.8,78.1,157.3,79.7z"/>
<path class="st4" d="M163.5,88.4c1.1,1.9,2.1,4,2.9,6l9.4-3.4c-1-2.6-2.3-5.2-3.6-7.6L163.5,88.4z"/>
<path class="st3" d="M176.5,92.9l-9.4,3.4c0.7,2.1,1.4,4.3,1.8,6.5l9.9-1.7C178.2,98.3,177.5,95.5,176.5,92.9z"/>
<path class="st4" d="M158.6,81.2c1.4,1.7,2.7,3.5,3.9,5.4l8.7-5c-1.5-2.4-3.1-4.7-4.9-6.9L158.6,81.2z"/>
<path class="st5" d="M81.1,43.1c3.4-1.9,7-3.6,10.7-5l-3.4-9.4c-4.3,1.6-8.4,3.5-12.3,5.7L81.1,43.1z"/>
<path class="st5" d="M69.6,50.9c3.1-2.5,6.3-4.7,9.7-6.8l-5-8.7c-3.9,2.3-7.7,4.9-11.2,7.8L69.6,50.9z"/>
<path class="st5" d="M51.5,71.7c2.1-3.4,4.4-6.6,6.9-9.7l-7.7-6.4c-2.9,3.5-5.5,7.2-7.9,11.1L51.5,71.7z"/>
<path class="st5" d="M45.4,84.1c1.4-3.7,3.2-7.3,5.1-10.7l-8.7-5c-2.2,3.9-4.2,8-5.9,12.3L45.4,84.1z"/>
<path class="st5" d="M134.5,24.2c-4.4-0.7-8.9-1.1-13.5-1.2v10c4,0,8,0.4,11.8,1L134.5,24.2z"/>
<path class="st5" d="M40.3,97.3c0.4-0.1,0.9-0.3,1.3-0.4c0.8-3.7,1.8-7.3,3.1-10.8l-9.4-3.4c-1.5,4.2-2.7,8.6-3.6,13.2L40.3,97.3z"
	/>
<path class="st5" d="M59.7,60.5c2.6-3,5.4-5.8,8.4-8.3l-6.4-7.7C58.2,47.4,55,50.6,52,54L59.7,60.5z"/>
<path class="st5" d="M31.3,97.7c-0.2,1.2-0.4,2.4-0.6,3.6c1.9-1,3.8-1.9,5.8-2.7L31.3,97.7z"/>
<path class="st5" d="M105.4,24.2l1.7,9.8c3.8-0.6,7.8-1,11.8-1V23C114.4,23.1,109.8,23.5,105.4,24.2z"/>
<path class="st5" d="M93.7,37.4c3.7-1.3,7.5-2.3,11.4-3l-1.7-9.9c-4.5,0.8-8.9,2-13.1,3.5L93.7,37.4z"/>
<path class="st6" d="M148.1,38.1c3.7,1.4,7.3,3.1,10.8,5l5-8.7c-3.9-2.2-8.1-4.1-12.3-5.7L148.1,38.1z"/>
<path class="st5" d="M134.7,34.4c3.9,0.7,7.8,1.7,11.5,3l3.4-9.4c-4.2-1.5-8.6-2.6-13.1-3.5L134.7,34.4z"/>
<path class="st6" d="M160.6,44.1c3.4,2,6.7,4.3,9.8,6.8l6.4-7.7c-3.5-2.9-7.3-5.5-11.2-7.8L160.6,44.1z"/>
<path class="st7" d="M31.3,79c1.7-4.5,3.8-8.9,6.2-13.1l-8.7-5c-2.7,4.7-5,9.6-7,14.7L31.3,79z"/>
<path class="st7" d="M137.1,9.4C131.9,8.5,126.5,8.1,121,8v10c4.9,0,9.7,0.5,14.4,1.2L137.1,9.4z"/>
<path class="st7" d="M26.8,94.9c0.9-4.8,2.2-9.5,3.9-14l-9.4-3.4C19.5,82.6,18,87.8,17,93.2L26.8,94.9z"/>
<path class="st7" d="M17.3,111.3c2.5-2.5,5.2-4.7,8.1-6.7c0.2-2.6,0.6-5.2,1-7.8L16.5,95c-0.9,5.3-1.4,10.7-1.5,16.2L17.3,111.3z"/>
<path class="st7" d="M38.5,64.2c2.5-4.2,5.3-8.1,8.4-11.8L39.2,46c-3.5,4.2-6.6,8.6-9.4,13.2L38.5,64.2z"/>
<path class="st7" d="M48.2,50.8c3.2-3.6,6.6-7.1,10.3-10.2L52.1,33c-4.1,3.5-8,7.3-11.5,11.4L48.2,50.8z"/>
<path class="st7" d="M102.8,9.4l1.7,9.9c4.7-0.8,9.5-1.2,14.4-1.2v-10C113.5,8.1,108.1,8.6,102.8,9.4z"/>
<path class="st7" d="M73.6,30.1c4.2-2.3,8.6-4.4,13.1-6.1l-3.4-9.4c-5.1,1.9-10,4.2-14.7,6.8L73.6,30.1z"/>
<path class="st7" d="M60,39.4c3.7-3,7.7-5.8,11.9-8.3l-5-8.7c-4.7,2.7-9.1,5.8-13.3,9.3L60,39.4z"/>
<path class="st7" d="M88.6,23.3c4.5-1.6,9.2-2.8,14-3.7l-1.7-9.9c-5.4,1-10.6,2.4-15.7,4.2L88.6,23.3z"/>
<path class="st8" d="M191.8,50.8l7.7-6.4c-3.5-4.1-7.4-7.9-11.5-11.4l-6.4,7.7C185.2,43.8,188.6,47.2,191.8,50.8z"/>
<path class="st7" d="M137.3,19.6c4.8,0.9,9.5,2.1,14,3.7l3.4-9.4c-5.1-1.8-10.3-3.2-15.7-4.2L137.3,19.6z"/>
<path class="st8" d="M202.5,65.9c2.4,4.2,4.5,8.6,6.2,13.1l9.4-3.4c-1.9-5.1-4.3-10-7-14.7L202.5,65.9z"/>
<path class="st9" d="M218.8,77.5l-9.4,3.4c1.6,4.5,2.9,9.2,3.8,14l9.9-1.7C222.1,87.9,220.7,82.6,218.8,77.5z"/>
<path class="st8" d="M193.1,52.4c3.1,3.7,5.9,7.7,8.4,11.8l8.7-5c-2.8-4.7-5.9-9.1-9.4-13.3L193.1,52.4z"/>
<path class="st8" d="M153.2,24c4.6,1.7,8.9,3.7,13.1,6.1l5-8.7c-4.7-2.6-9.6-4.9-14.7-6.8L153.2,24z"/>
<path class="st8" d="M168.1,31.1c4.2,2.5,8.2,5.2,11.9,8.3l6.4-7.7c-4.2-3.4-8.6-6.5-13.3-9.3L168.1,31.1z"/>
<path class="st10" d="M10,111.3c0.1-5.8,0.6-11.5,1.6-17.1l-9.8-1.7c-1.1,6.1-1.6,12.4-1.7,18.8H10z"/>
<path class="st10" d="M3.9,131.7c1.6-4.2,3.7-8.2,6.3-11.9c-0.1-2.1-0.2-4.3-0.2-6.5H0c0,6.4,0.5,12.7,1.5,18.8L3.9,131.7z"/>
<path class="st10" d="M12,92.2c1.1-5.7,2.6-11.2,4.5-16.5l-9.4-3.4c-2.1,5.9-3.8,12-5,18.2L12,92.2z"/>
<path class="st10" d="M17.2,73.8c2-5.4,4.5-10.5,7.3-15.5l-8.7-5c-3.1,5.4-5.8,11.1-8.1,17L17.2,73.8z"/>
<path class="st10" d="M66.1,17.1c4.9-2.8,10.1-5.2,15.5-7.2l-3.4-9.4c-5.9,2.2-11.6,4.9-17.1,7.9L66.1,17.1z"/>
<path class="st10" d="M16.9,51.6l8.7,5c2.9-4.9,6.2-9.6,9.9-14l-7.7-6.4C23.7,41.1,20.1,46.2,16.9,51.6z"/>
<path class="st10" d="M50.4,27.8c4.4-3.6,9.1-6.9,14-9.8l-5-8.7C54,12.6,48.8,16.2,44,20.2L50.4,27.8z"/>
<path class="st10" d="M36.7,41.2c3.7-4.3,7.8-8.3,12.1-12l-6.4-7.7C37.6,25.6,33.1,30,29,34.8L36.7,41.2z"/>
<g>
	<circle class="st11" cx="120" cy="113" r="2.5"/>
	<path class="st11" d="M229.4,178.8c-0.7-9.2-7.5-16.9-16.5-18.7c-3.4-0.7-6.9-0.5-10.2,0.5l-11.5,3.5l-1.4-11.9
		c-1.3-11.2-10.2-19.9-21.4-20.9l-10.7-1l1.8-10.6c0.4-2.2,0.6-4.4,0.6-6.6c0-23-19.5-41.5-42.8-39.9c-16,1.1-29.7,12-35.1,27.1
		l-2.8,8l-8.8-2.3c-3.9-1-8-1.5-12.1-1.5c-26.7,0-48.4,21.7-48.4,48.4c0,26.6,21.6,48.3,48.2,48.4h0.5h0.1h150
		C220.8,201,230.3,190.9,229.4,178.8z M120,128.2c-8.4,0-15.2-6.8-15.2-15.2s6.8-15.2,15.2-15.2s15.2,6.8,15.2,15.2
		S128.4,128.2,120,128.2z"/>
</g>
<g>
	<path class="st11" d="M266,62v2.7c0,7.9-2.4,12.8-7.8,15.4v0.2c6.5,2.5,9,8.2,9,16.4v6.3c0,11.9-6.3,18.2-18.3,18.2h-19V44.3h18.2
		C260.6,44.3,266,50.1,266,62z M242,55.3v20.3h4.7c4.5,0,7.2-2,7.2-8.1v-4.3c0-5.5-1.9-7.9-6.1-7.9H242z M242,86.6v23.6h6.9
		c4.1,0,6.3-1.9,6.3-7.6v-6.7c0-7.1-2.3-9.3-7.8-9.3H242z"/>
	<path class="st11" d="M313.5,121.1h-12.2l-2.1-13.9h-14.8l-2.1,13.9h-11.1l12.3-76.8h17.7L313.5,121.1z M286,96.8h11.6L291.9,58
		h-0.2L286,96.8z"/>
	<path class="st11" d="M330.1,65.5h-0.2v55.6H319V44.3h15.1l12.2,46h0.2v-46h10.8v76.8h-12.4L330.1,65.5z"/>
	<path class="st11" d="M366,44.3h19.1c12.1,0,18,6.7,18,19v38.8c0,12.3-5.9,19-18,19H366V44.3z M378.1,55.3v54.9h6.8
		c3.8,0,6.1-2,6.1-7.5V62.8c0-5.5-2.3-7.5-6.1-7.5H378.1z"/>
	<path class="st11" d="M426.8,62.8c0-12.3,6.5-19.3,18.3-19.3c11.9,0,18.3,7,18.3,19.3v39.9c0,12.3-6.5,19.3-18.3,19.3
		c-11.9,0-18.3-7-18.3-19.3V62.8z M438.9,103.5c0,5.5,2.4,7.6,6.3,7.6c3.8,0,6.3-2.1,6.3-7.6V62c0-5.5-2.4-7.6-6.3-7.6
		c-3.8,0-6.3,2.1-6.3,7.6V103.5z"/>
	<path class="st11" d="M482.2,65.5H482v55.6h-10.9V44.3h15.1l12.2,46h0.2v-46h10.8v76.8H497L482.2,65.5z"/>
</g>
<g>
	<path class="st11" d="M229.6,125.1h37.3v11h-12.6v65.8h-12.1v-65.8h-12.6L229.6,125.1L229.6,125.1z"/>
	<path class="st11" d="M284.2,201.9h-12.1v-76.8h12.1V158h13.7v-32.9h12.3v76.8h-12.3V169h-13.7V201.9z"/>
	<path class="st11" d="M331.1,157.5h16.6v11h-16.6V191h20.8v11H319v-76.8h32.9v11h-20.8V157.5z"/>
	<path class="st11" d="M411.4,173.3v10.2c0,12.3-6.1,19.3-18,19.3s-18-7-18-19.3v-39.9c0-12.3,6.1-19.3,18-19.3s18,7,18,19.3v7.5
		H400v-8.2c0-5.5-2.4-7.6-6.3-7.6c-3.8,0-6.3,2.1-6.3,7.6v41.5c0,5.5,2.4,7.5,6.3,7.5c3.8,0,6.3-2,6.3-7.5v-11h11.4V173.3z"/>
	<path class="st11" d="M418.8,125.1h12.1V191h19.9v11h-31.9v-76.9H418.8z"/>
	<path class="st11" d="M455,143.6c0-12.3,6.5-19.3,18.3-19.3s18.3,7,18.3,19.3v39.9c0,12.3-6.5,19.3-18.3,19.3s-18.3-7-18.3-19.3
		V143.6z M467,184.3c0,5.5,2.4,7.6,6.3,7.6c3.8,0,6.3-2.1,6.3-7.6v-41.5c0-5.5-2.4-7.6-6.3-7.6c-3.8,0-6.3,2.1-6.3,7.6V184.3z"/>
	<path class="st11" d="M510.9,125.1v59.3c0,5.5,2.4,7.5,6.3,7.5c3.8,0,6.3-2,6.3-7.5v-59.3h11.4v58.5c0,12.3-6.1,19.3-18,19.3
		c-11.9,0-18-7-18-19.3v-58.5C498.9,125.1,510.9,125.1,510.9,125.1z"/>
	<path class="st11" d="M543.1,125.1h19.1c12.1,0,18,6.7,18,19v38.8c0,12.3-5.9,19-18,19h-19.1V125.1z M555.2,136.1V191h6.8
		c3.8,0,6.1-2,6.1-7.5v-39.9c0-5.5-2.3-7.5-6.1-7.5H555.2z"/>
</g>
</svg>
