<?xml version="1.0" encoding="utf-8"?>
<!-- Generator: Adobe Illustrator 25.0.0, SVG Export Plug-In . SVG Version: 6.00 Build 0)  -->
<svg version="1.1" id="Livello_1" xmlns="http://www.w3.org/2000/svg" xmlns:xlink="http://www.w3.org/1999/xlink" x="0px" y="0px"
	 viewBox="0 0 240 240" style="enable-background:new 0 0 240 240;" xml:space="preserve">
<style type="text/css">
	.st0{fill:#fff;}
</style>
<g>
	<path class="st0" d="M184.2,151.6L184.2,151.6c-5.7,0-10.3-4.6-10.3-10.3V98.5c0-5.7,4.6-10.3,10.3-10.3l0,0
		c5.7,0,10.3,4.6,10.3,10.3v42.9C194.5,147,189.9,151.6,184.2,151.6z"/>
	<path class="st0" d="M64.2,170L64.2,170c5.7,0,10.3-4.6,10.3-10.3V80.1c0-5.7-4.6-10.3-10.3-10.3l0,0c-5.7,0-10.3,4.6-10.3,10.3
		v79.7C53.9,165.4,58.5,170,64.2,170z"/>
	<path class="st0" d="M21.1,141.2L21.1,141.2c5.7,0,10.3-4.6,10.3-10.3v-22.1c0-5.7-4.6-10.3-10.3-10.3l0,0
		c-5.7,0-10.3,4.6-10.3,10.3V131C10.9,136.7,15.5,141.2,21.1,141.2z"/>
	<g>
		<path class="st0" d="M143.2,34.8H140c-4.8,0-8.7,3.9-8.7,8.7V60c0,4.4-3.6,8-8,8l0,0c-4.4,0-8-3.6-8-8V10.5
			c0-5.6-4.4-10.3-10-10.5c-5.8-0.1-10.5,4.5-10.5,10.3v219.1c0,5.6,4.4,10.3,10,10.5c5.8,0.1,10.5-4.5,10.5-10.3v-49.8
			c0-4.4,3.6-8,8-8l0,0c4.4,0,8,3.6,8,8v16.6c0,4.8,3.9,8.7,8.7,8.7h3.2c4.8,0,8.7-3.9,8.7-8.7v-153C151.8,38.6,148,34.8,143.2,34.8
			z M132.5,147.1c0,3.9-3.2,7.1-7.1,7.1h0c-3.9,0-7.1-3.2-7.1-7.1V90.3c0-3.9,3.2-7.1,7.1-7.1h0c3.9,0,7.1,3.2,7.1,7.1V147.1z"/>
	</g>
	<ellipse transform="matrix(0.1602 -0.9871 0.9871 0.1602 66.1225 317.585)" class="st0" cx="219.7" cy="119.9" rx="9.6" ry="9.6"/>
</g>
</svg>
