<svg xmlns="http://www.w3.org/2000/svg" viewBox="0 0 512 512"><!--!Font Awesome Free 6.5.1 by @fontawesome - https://fontawesome.com License - https://fontawesome.com/license/free Copyright 2024 Fonticons, Inc.--><path d="M431.3 122.1l73.5-47.4a16 16 0 0 0 4.4-22.2l-8.9-13.3a16 16 0 0 0 -22.2-4.4l-110.1 71C318.4 96.9 271.2 96 256 96 219.6 96 0 100.6 0 208.2v160.2c0 30.3 27.5 57.7 72 77.9v-101.9a24 24 0 1 1 48 0v118.9c33.1 9.1 71.1 15.1 112 16.7V376.4a24 24 0 1 1 48 0V480c40.9-1.7 79-7.6 112-16.7V344.3a24 24 0 1 1 48 0v101.9c44.5-20.2 72-47.6 72-77.9V208.2c0-43.3-35.8-69.8-80.7-86.1zM256 272.2c-114.9 0-208-28.7-208-64.1s93.1-64.1 208-64.1c17.2 0 33.7 .7 49.7 1.9l-72.8 47a16 16 0 0 0 -4.4 22.2l8.9 13.3a16 16 0 0 0 22.2 4.4l118.6-76.5C430.1 168 464 186.8 464 208.2c0 35.4-93.1 64.1-208 64.1z" fill="rgb(243,244,246)"/></svg>