<?xml version="1.0" encoding="utf-8"?>
<!-- Generator: Adobe Illustrator 25.0.0, SVG Export Plug-In . SVG Version: 6.00 Build 0)  -->
<svg version="1.1" id="Livello_1" xmlns="http://www.w3.org/2000/svg" xmlns:xlink="http://www.w3.org/1999/xlink" x="0px" y="0px"
	 viewBox="0 0 240 240" style="enable-background:new 0 0 240 240;" xml:space="preserve">
<style type="text/css">
	.st0{fill:#FACC15;}
</style>
<g>
	<path class="st0" d="M140.6,140.3c5.4-5.4,8.4-12.9,8.4-20.7c0-7.8-3-15-8.4-20.7c-5.4-5.4-12.9-8.4-20.7-8.4c-7.8,0-15,3-20.7,8.4
		c-5.4,5.4-8.4,12.9-8.4,20.7s3,15,8.4,20.7c5.4,5.4,12.9,8.4,20.7,8.4S134.9,145.7,140.6,140.3z"/>
	<path class="st0" d="M232.6,115.7h-2.1c-0.9-27.6-12-52.8-29.7-71.6l1.5-1.5c1.5-1.5,1.5-3.9,0-5.4l0,0c-1.5-1.5-3.9-1.5-5.4,0
		l-1.5,1.5C176.5,21,151.3,9.9,123.8,9V6.9c0-2.1-1.8-3.9-3.9-3.9S116,4.8,116,6.9V9c-5.4,0.3-10.5,0.6-15.6,1.5c0,0.3,0,0.3,0,0.6
		l-2.1,7.2v0.3c6.9-1.5,14.4-2.4,21.6-2.4c27.6,0,53.4,10.8,72.8,30.3s30,45.6,30,73.1s-10.8,53.4-30.3,72.8s-45,30-72.5,30
		c-10.5,0-20.7-1.5-30.6-4.5l0.9,8.4c8.1,2.4,16.8,3.6,25.8,3.9v2.1c0,2.1,1.8,3.9,3.9,3.9s3.9-1.8,3.9-3.9v-2.1
		c27.6-0.9,52.8-12,71.6-29.7l1.5,1.5c1.5,1.5,3.9,1.5,5.4,0l0,0c1.5-1.5,1.5-3.9,0-5.4l-1.5-1.5c17.7-18.9,28.8-44.1,29.7-71.6h2.1
		c2.1,0,3.9-1.8,3.9-3.9C236.5,117.5,234.7,115.7,232.6,115.7z"/>
	<path class="st0" d="M94.7,17.7l2.1-7.2c0.9-3-0.9-6-3.9-6.9l0,0c-3-0.9-6,0.9-6.9,3.9l-2.4,7.2c-0.6,2.4,0.3,4.8,2.1,6L26.3,229.1
		c-0.9,3,0.9,6,3.9,6.9c3,0.9,6-0.9,6.9-3.9L89.6,21.9C92,21.6,94.1,20.1,94.7,17.7z"/>
	<path class="st0" d="M74.9,44.7l4.5-15.3c-3,1.5-6.3,3-9,4.8l1.2,12.9C72.8,46.2,73.7,45.3,74.9,44.7z"/>
	<path class="st0" d="M59.6,56.4l-0.9-14.7c-3,2.4-6,5.1-8.7,7.8c-18.9,18.9-29.1,43.8-29.1,70.1c0,20.1,6,39,16.8,55.2l4.5-15.3
		c-6.3-12.3-9.6-25.8-9.6-39.9c0-23.4,9-45.3,25.5-61.8C58.7,57.3,59,57,59.6,56.4z"/>
	<path class="st0" d="M80.6,24.3l0.6-2.4c-1.2-1.5-1.8-3.3-1.8-5.4c-3.6,1.5-7.2,3-10.5,4.8l0.9,8.4C73.4,27.6,77,25.8,80.6,24.3z"
		/>
	<path class="st0" d="M36.2,179.6c-12.6-17.4-19.5-38.4-19.5-60c0-27.6,10.8-53.4,30.3-72.8c3.6-3.6,7.2-6.6,11.1-9.6l-0.6-9
		c-4.8,3.3-9,6.6-13.2,10.5l-1.5-1.5c-1.5-1.5-3.9-1.5-5.4,0l0,0c-1.5,1.5-1.5,3.9,0,5.4l1.5,1.5C21.2,63,10.2,88.2,9.3,115.7H7.2
		c-2.1,0-3.9,1.8-3.9,3.9s1.8,3.9,3.9,3.9h2.1c0.9,24.9,9.9,47.4,24.3,65.7L36.2,179.6z"/>
	<path class="st0" d="M56.6,13.5c0.3,2.4,1.8,4.5,4.2,5.1L65,79.5l4.5-15.3l-4.8-45.9c2.1-0.9,3.3-3.3,3.3-5.7l-0.6-7.5
		c-0.3-3-3-5.4-6-5.1l0,0c-3,0.3-5.4,3-5.1,6L56.6,13.5z"/>
	<path class="st0" d="M73.4,102.3l-5.4,21l7.8,110.9c0.3,3,3,5.4,6,5.1c3-0.3,5.4-3,5.1-6L73.4,102.3z"/>
	<path class="st0" d="M50.3,195.5l-2.1,8.4c6.9,6,14.7,11.1,23.1,15l-0.6-9C63.2,206,56.3,201.2,50.3,195.5z"/>
	<path class="st0" d="M70.1,205.4l-0.9-14.7c-3.9-2.7-7.5-6-11.1-9.3c-1.2-1.2-2.4-2.4-3.6-3.6L51.2,191
		C56.9,196.7,63.2,201.2,70.1,205.4z"/>
	<path class="st0" d="M190,189.8c18.6-18.9,28.8-43.8,28.8-70.1s-10.2-51.3-29.1-70.1s-43.5-28.8-69.8-28.8
		c-8.7,0-17.1,1.2-25.2,3.3c-0.6,0.3-1.2,0.9-1.8,1.2l-3.3,12.6c9.6-3.6,19.8-5.4,30.3-5.4c23.4,0,45.3,9,61.8,25.5
		s25.5,38.4,25.5,61.8s-9,45.3-25.5,61.8s-38.4,25.5-61.8,25.5c-11.1,0-22.2-2.1-32.1-6l1.2,12.9c9.9,3.3,20.1,4.8,30.9,4.8
		C146.3,218.6,171.1,208.4,190,189.8z"/>
</g>
</svg>
