<?xml version="1.0" encoding="utf-8"?>
<!-- Generator: Adobe Illustrator 25.0.0, SVG Export Plug-In . SVG Version: 6.00 Build 0)  -->
<svg version="1.1" id="Livello_1" xmlns="http://www.w3.org/2000/svg" xmlns:xlink="http://www.w3.org/1999/xlink" x="0px" y="0px"
	 viewBox="0 0 240 240" style="enable-background:new 0 0 240 240;" xml:space="preserve">
<style type="text/css">
	.st0{fill:#f472b6;}
</style>
<path class="st0" d="M177.9,47.5l1.6,0c2.1,0,3.7-1.6,3.8-3.7l0.1-7.7c0-2.1-1.6-3.7-3.7-3.8l-1.6,0c-2.1,0-3.7,1.6-3.8,3.7l0,1.2
	l-7.6-0.1l0.3-25.5c0-3.5-3.3-6.1-6.6-5.1c-3.1,0.9-6.2,1.9-9.3,2.2c-0.8,0.1-1.6-0.1-2.3-0.4C142.6,5.7,133.2,0,121.4,0
	c-10.5,0-19.1,5.1-25,7.5c-0.9,0.4-1.9,0.5-2.9,0.3L80.4,5.4c-3.2-0.6-6.1,1.9-6.2,5.1L73.9,36l-7.2-0.1l0-1.2
	c0-2.1-1.6-3.7-3.7-3.8l-1.6,0c-2.1,0-3.7,1.6-3.8,3.7l-0.1,7.7c0,2.1,1.6,3.7,3.7,3.8l1.6,0c2.1,0,3.7-1.6,3.8-3.7l0-0.4l7.2,0.1
	l-0.3,25.7l-7.2-0.1l0-1.2c0-2.1-1.6-3.7-3.7-3.8l-1.6,0c-2.1,0-3.7,1.6-3.8,3.7l-0.1,7.7c0,2.1,1.6,3.7,3.7,3.8l1.6,0
	c2.1,0,3.7-1.6,3.8-3.7l0-0.4l7.2,0.1l-0.3,25.7L66,99.6l0-1.2c0-2.1-1.6-3.7-3.7-3.8l-1.6,0c-2.1,0-3.7,1.6-3.8,3.7l-0.1,7.7
	c0,2.1,1.6,3.7,3.7,3.8l1.6,0c2.1,0,3.7-1.6,3.8-3.7l0-0.4l7.2,0.1l-0.3,28.5c0,2.9,2.3,5.2,5.2,5.2l0,0c11.8,0,21.3,9.6,21.1,21.4
	l-0.3,23.6l0,40.9c0,0.4,0.3,0.7,0.7,0.7h4c0.4,0,0.7-0.3,0.7-0.7v-40.8l11.4,0.1v54.3c0,0.4,0.3,0.7,0.7,0.7h4
	c0.4,0,0.7-0.3,0.7-0.7v-54.3l11.8,0.1v40.5c0,0.4,0.3,0.7,0.7,0.7h4c0.4,0,0.7-0.3,0.7-0.7l0-40.4l0.3-23.1
	c0.1-11.9,9.8-21.4,21.6-21.4h0.1c2.9,0,5.2-2.3,5.2-5.2l0.3-28.4l7.6,0.1l0,0.4c0,2.1,1.6,3.7,3.7,3.8l1.6,0c2.1,0,3.7-1.6,3.8-3.7
	l0.1-7.7c0-2.1-1.6-3.7-3.7-3.8l-1.6,0c-2.1,0-3.7,1.6-3.8,3.7l0,1.2l-7.6-0.1l0.3-25.7l7.6,0.1l0,0.4c0,2.1,1.6,3.7,3.7,3.8l1.6,0
	c2.1,0,3.7-1.6,3.8-3.7L183,68c0-2.1-1.6-3.7-3.7-3.8l-1.6,0c-2.1,0-3.7,1.6-3.8,3.7l0,1.2l-7.6-0.1l0.3-25.7l7.6,0.1l0,0.4
	C174.2,45.8,175.9,47.5,177.9,47.5z M90.2,108.9c-3.8,0-6.8-3.2-6.8-7c0-3.8,3.2-6.8,7-6.8c3.8,0,6.8,3.2,6.8,7
	C97.1,105.9,94,109,90.2,108.9z M90.5,77.6c-3.8,0-6.8-3.2-6.8-7c0-3.8,3.2-6.8,7-6.8c3.8,0,6.8,3.2,6.8,7
	C97.4,74.6,94.3,77.7,90.5,77.6z M90.9,46.3c-3.8,0-6.8-3.2-6.8-7c0-3.8,3.2-6.8,7-6.8c3.8,0,6.8,3.2,6.8,7
	C97.8,43.3,94.7,46.4,90.9,46.3z M149.2,109.6c-3.8,0-6.8-3.2-6.8-7c0-3.8,3.2-6.8,7-6.8c3.8,0,6.8,3.2,6.8,7
	C156.1,106.6,153,109.7,149.2,109.6z M149.6,78.3c-3.8,0-6.8-3.2-6.8-7c0-3.8,3.2-6.8,7-6.8c3.8,0,6.8,3.2,6.8,7
	C156.5,75.3,153.4,78.4,149.6,78.3z M149.9,47c-3.8,0-6.8-3.2-6.8-7c0-3.8,3.2-6.8,7-6.8c3.8,0,6.8,3.2,6.8,7
	C156.9,44,153.7,47,149.9,47z"/>
</svg>
