<?xml version="1.0" encoding="utf-8"?>
<svg viewBox="0 0 465.66 92.91" xmlns="http://www.w3.org/2000/svg">
  <defs>
    <style>.cls-1,.cls-3{fill:#5195d0;}.cls-1{stroke:#fff;stroke-width:0.38px;}.cls-2{fill:#4a5e81;}.cls-4{fill:#d9cfcd;}.cls-5{fill:#b5adab;}.cls-5,.cls-6{fill-rule:evenodd;}.cls-19,.cls-6{fill:#fff;}.cls-7{fill:#a70e13;}.cls-8{fill:#40502e;}.cls-9{fill:#5b6c36;}.cls-10{fill:#1c2c1d;}.cls-11{fill:#4a604a;}.cls-12{fill:#233a17;}.cls-13{fill:#7b5a3e;}.cls-14{fill:#957761;}.cls-15{fill:#563021;}.cls-16{fill:#b11116;}.cls-17{fill:#8b0304;}.cls-18{fill:#790000;}.cls-20{fill:#94070a;}.cls-21{fill:#613731;}.cls-22{fill:#010;}.cls-23{fill:#304822;}.cls-24{fill:#806c5a;}.cls-25{fill:#6b7e47;}.cls-26{fill:#452914;}.cls-27{fill:#2d1400;}.cls-28{fill:#2e3e2e;}.cls-29{fill:#495d3a;}.cls-30{fill:#5d7856;}.cls-31{fill:#837d52;}.cls-32{fill:#4c5117;}.cls-33{fill:#53614a;}.cls-34{fill:#b29c6e;}.cls-35{fill:#7c6450;}.cls-36{fill:#927f5e;}.cls-37{fill:#a28f64;}.cls-38{fill:#5a6c43;}.cls-39{fill:#3f5c3a;}.cls-40{fill:#604d3d;}.cls-41{fill:#034ea2;}.cls-42{fill:#fff200;}.cls-43{fill:#231f20;}.cls-44{font-size:7.56px;fill:#010101;font-family:Helvetica, Helvetica;}.cls-45{font-size:12.42px;fill:#dba111;stroke:#dba111;stroke-width:0.15px;font-family:MyriadPro-Cond, Myriad Pro;letter-spacing:0em;}.cls-46{letter-spacing:0em;}.cls-47{letter-spacing:-0.01em;}.cls-48{letter-spacing:-0.02em;}.cls-49{letter-spacing:0em;}.cls-50{letter-spacing:-0.01em;}.cls-51{letter-spacing:-0.08em;}.cls-52{letter-spacing:-0.07em;}.cls-53{letter-spacing:-0.04em;}</style>
  </defs>
  <title>Risorsa 1</title>
  <g id="Livello_2" data-name="Livello 2">
    <g id="Layer_1" data-name="Layer 1">
      <path class="cls-1" d="M285.5,48.59a17.62,17.62,0,0,1-13.08-5.23V67.61h-11.6V25c0-12.91,9.51-23.46,23.12-23.46S307,12.13,307,25,297.37,48.59,285.5,48.59Zm-1.57-36.2c-6.37,0-11.51,5.67-11.51,12.65,0,7.15,5.15,12.91,11.51,12.91S295.45,32.37,295.45,25,290.3,12.39,283.93,12.39Z"/>
      <path class="cls-1" d="M348.75,25.21c0,13.43-10.21,23.46-22.68,23.46s-22.59-10-22.59-23.46S313.59,1.57,326.07,1.57,348.75,11.78,348.75,25.21Zm-11.6.09c0-7.76-5-13.17-11.08-13.17S315,17.54,315,25.3c0,7.59,5,12.82,11.08,12.82S337.14,32.89,337.14,25.3Z"/>
      <path class="cls-1" d="M367.76,1.57c12.56,0,20,8.29,20,20.06v26H376.23V21.38c0-2.53-.87-8.55-8.46-8.55-5.06,0-8.72,3.49-8.72,8.55V47.63H347.53v-26C347.53,10.21,355.55,1.57,367.76,1.57Z"/>
      <path class="cls-2" d="M351.58,65.54v2.08h-8.2l4.45-5.22c1.35-1.61,1.58-2.13,1.58-3.06a1.57,1.57,0,0,0-1.71-1.52,1.77,1.77,0,0,0-1.83,1.93h-2.24a4,4,0,0,1,4.06-4.17,3.8,3.8,0,0,1,3.95,3.76c0,1.69-.64,2.69-2.2,4.42l-1.59,1.78Z"/>
      <path class="cls-2" d="M364.75,61.69A5.76,5.76,0,1,1,359,55.58,5.83,5.83,0,0,1,364.75,61.69Zm-2.25,0a3.53,3.53,0,1,0-3.49,4A3.78,3.78,0,0,0,362.5,61.69Z"/>
      <path class="cls-2" d="M338.11,61.88h4.59V64h-4.59Z"/>
      <path class="cls-2" d="M305.59,65.54v2.08h-8.2l4.45-5.22c1.35-1.61,1.58-2.13,1.58-3.06a1.57,1.57,0,0,0-1.71-1.52,1.77,1.77,0,0,0-1.83,1.93h-2.24a4,4,0,0,1,4.06-4.17,3.8,3.8,0,0,1,3.95,3.76c0,1.69-.64,2.69-2.2,4.42l-1.59,1.78Z"/>
      <path class="cls-2" d="M319.15,61.69a5.76,5.76,0,1,1-5.74-6.11A5.83,5.83,0,0,1,319.15,61.69Zm-2.25,0a3.53,3.53,0,1,0-3.49,4A3.78,3.78,0,0,0,316.9,61.69Z"/>
      <path class="cls-3" d="M324.65,67.62h-2.24V58h-1.35V55.87h3.59Z"/>
      <path class="cls-3" d="M337.15,63.91h-1.52v-8h-1.87L327,66.15h6.37v1.7h2.24v-1.7h1.52Zm-6,0,2.23-3.4v3.4Z"/>
      <path class="cls-3" d="M374.56,65.54v2.08h-8.2l4.45-5.22c1.35-1.61,1.58-2.13,1.58-3.06a1.57,1.57,0,0,0-1.71-1.52,1.77,1.77,0,0,0-1.83,1.93h-2.24a4,4,0,0,1,4.06-4.17,3.8,3.8,0,0,1,3.95,3.76c0,1.69-.64,2.69-2.2,4.42l-1.59,1.78Z"/>
      <path class="cls-3" d="M387.74,61.69A5.76,5.76,0,1,1,382,55.58,5.83,5.83,0,0,1,387.74,61.69Zm-2.25,0a3.53,3.53,0,1,0-3.49,4A3.78,3.78,0,0,0,385.49,61.69Z"/>
      <path class="cls-2" d="M179.28,8.33h5.82v2.91h-5.82V18h-3.12V6.77c0-3.15,1.8-5.23,5.16-5.23h5V4.61h-5c-1.49,0-2.06.57-2.06,2.08Z"/>
      <path class="cls-2" d="M203.79,9.68c0,4.78-3.38,8.57-8,8.57s-8-3.79-8-8.57,3.38-8.54,8-8.54S203.79,4.92,203.79,9.68Zm-3.15,0c0-3.05-2.18-5.59-4.88-5.59s-4.9,2.53-4.9,5.59,2.18,5.61,4.9,5.61S200.65,12.75,200.65,9.68Z"/>
      <path class="cls-2" d="M216.29,2.82a6,6,0,0,1,1.66,4.26V18h-3.12V7a2.83,2.83,0,0,0-5.66,0V18H206V7.08a6,6,0,0,1,1.66-4.26,6.33,6.33,0,0,1,8.59,0Z"/>
      <path class="cls-2" d="M227,18h-6.08V1.54H227c4.57,0,7.41,3.15,7.41,8.21S231.48,18,227,18Zm0-13.51h-3v10.6h3c3.72,0,4.28-3.34,4.28-5.33C231.27,7.31,230.51,4.45,227,4.45Z"/>
      <path class="cls-2" d="M239.89,18h-3.12V1.54h3.12Z"/>
      <path class="cls-2" d="M109.1,30.14c-.8.73-1.35,1.82-1.35,4.38,0,2.3-.28,4.9-2.46,6.7a7.73,7.73,0,0,1-5.18,1.51v-3a5.18,5.18,0,0,0,3.22-.9c.78-.66,1.3-1.73,1.3-4.35,0-3.15.73-5.18,2.44-6.65a7.43,7.43,0,0,1,5-1.59v3A4.64,4.64,0,0,0,109.1,30.14Z"/>
      <path class="cls-2" d="M120.6,29.22V42.73h-3.12V29.22h-4.4V26.31H125v2.91Z"/>
      <path class="cls-2" d="M137.64,42.73h-3.12V37.91a1,1,0,0,0-1.09-1.09h-3.9v5.92h-3.15v-11a6,6,0,0,1,1.56-4.09,5.74,5.74,0,0,1,4.21-1.73,5.55,5.55,0,0,1,5.8,5.3,4.76,4.76,0,0,1-1.7,3.86,3,3,0,0,1,1.4,2.7ZM134.8,31.42a2.48,2.48,0,0,0-2.6-2.51,2.61,2.61,0,0,0-2.67,2.82V34h2.7A2.35,2.35,0,0,0,134.8,31.42Z"/>
      <path class="cls-2" d="M142,41.36a6,6,0,0,1-1.66-4.28V26.31h3.12V37.13a2.83,2.83,0,1,0,5.66,0V26.31h3.12V37.08A6.08,6.08,0,0,1,142,41.36Z"/>
      <path class="cls-2" d="M161.56,29.22V42.73h-3.12V29.22H154V26.31H166v2.91Z"/>
      <path class="cls-2" d="M174.71,29.22V42.73h-3.12V29.22h-4.4V26.31h11.93v2.91Z"/>
      <path class="cls-2" d="M182.62,41.36A6,6,0,0,1,181,37.08V26.31h3.12V37.13a2.83,2.83,0,1,0,5.66,0V26.31h3.12V37.08a6.08,6.08,0,0,1-10.25,4.28Z"/>
      <path class="cls-2" d="M206.92,42.73H203.8V37.91a1,1,0,0,0-1.09-1.09h-3.9v5.92h-3.15v-11a6,6,0,0,1,1.56-4.09,5.75,5.75,0,0,1,4.21-1.73,5.55,5.55,0,0,1,5.8,5.3,4.76,4.76,0,0,1-1.7,3.86,3,3,0,0,1,1.4,2.7Zm-2.84-11.31a2.48,2.48,0,0,0-2.6-2.51,2.61,2.61,0,0,0-2.67,2.82V34h2.7A2.35,2.35,0,0,0,204.08,31.42Z"/>
      <path class="cls-2" d="M221.86,42.73h-3.12V38.14h-5.66v4.59H210V31.85a6,6,0,1,1,11.9,0Zm-3.12-11a2.83,2.83,0,0,0-5.66,0v3.36h5.66Z"/>
      <path class="cls-2" d="M224.64,37.55V26.31h3.12V37.5c0,1.51.57,2.15,2.06,2.15h4.95v3.08h-5C226.44,42.73,224.64,40.7,224.64,37.55Z"/>
      <path class="cls-2" d="M239.89,42.73h-3.12V26.31h3.12Z"/>
      <path class="cls-2" d="M152.23,57.83h6.65v2.91h-6.65v1.59c0,1.51.59,2.11,2.08,2.11h5.77v3.08h-5.8c-3.38,0-5.18-2.08-5.18-5.23v-6c0-3.15,1.8-5.23,5.18-5.23h5.8v3.08h-5.77c-1.49,0-2.08.57-2.08,2.08Z"/>
      <path class="cls-2" d="M164.14,66.13a6,6,0,0,1-1.66-4.28V51.08h3.12V61.9a2.83,2.83,0,1,0,5.66,0V51.08h3.12V61.85a6.08,6.08,0,0,1-10.25,4.28Z"/>
      <path class="cls-2" d="M188.44,67.51h-3.12V62.68a1,1,0,0,0-1.09-1.09h-3.9v5.92h-3.15v-11a6,6,0,0,1,1.56-4.09,5.75,5.75,0,0,1,4.21-1.73,5.55,5.55,0,0,1,5.8,5.3,4.76,4.76,0,0,1-1.7,3.86,3,3,0,0,1,1.4,2.7ZM185.6,56.19a2.48,2.48,0,0,0-2.6-2.51,2.61,2.61,0,0,0-2.67,2.82v2.22H183A2.35,2.35,0,0,0,185.6,56.19Z"/>
      <path class="cls-2" d="M206.73,59.22c0,4.78-3.38,8.57-8,8.57s-8-3.79-8-8.57,3.38-8.54,8-8.54S206.73,54.47,206.73,59.22Zm-3.15,0c0-3.05-2.18-5.59-4.88-5.59s-4.9,2.53-4.9,5.59,2.18,5.61,4.9,5.61S203.58,62.3,203.58,59.22Z"/>
      <path class="cls-2" d="M215.32,62.73H212.1v4.78H209V56.69a6.12,6.12,0,1,1,6.34,6Zm-.24-9.09a3.06,3.06,0,0,0-3,3.12v3.1h3a3.11,3.11,0,0,0,0-6.22Z"/>
      <path class="cls-2" d="M226.4,57.83H233v2.91H226.4v1.59c0,1.51.59,2.11,2.08,2.11h5.77v3.08h-5.8c-3.38,0-5.18-2.08-5.18-5.23v-6c0-3.15,1.8-5.23,5.18-5.23h5.8v3.08h-5.77c-1.49,0-2.08.57-2.08,2.08Z"/>
      <path class="cls-2" d="M239.89,67.51h-3.12V51.08h3.12Z"/>
      <circle class="cls-4" cx="440.55" cy="23.97" r="13.53"/>
      <path class="cls-5" d="M457.52,23.06a.44.44,0,0,0-.44-.44h-1.26a15.22,15.22,0,0,0-.32-2.06l1.2-.39a.45.45,0,0,0,.29-.56l-.57-1.74a.44.44,0,0,0-.56-.29l-1.2.39a15.41,15.41,0,0,0-.95-1.85l1-.74a.44.44,0,0,0,.1-.62l-1.08-1.48a.45.45,0,0,0-.62-.1l-1,.74a15.67,15.67,0,0,0-1.47-1.47l.74-1a.44.44,0,0,0-.1-.62L449.8,9.72a.44.44,0,0,0-.62.1l-.74,1a15.42,15.42,0,0,0-1.85-.95L447,8.7a.44.44,0,0,0-.28-.56l-1.74-.56a.44.44,0,0,0-.56.29L444,9.06a15.39,15.39,0,0,0-2.06-.32V7.47a.44.44,0,0,0-.44-.44h-1.83a.44.44,0,0,0-.44.44V8.73a15.45,15.45,0,0,0-2.06.32l-.39-1.2a.44.44,0,0,0-.56-.29l-1.74.57a.44.44,0,0,0-.29.56l.39,1.2a15.3,15.3,0,0,0-1.85.95l-.74-1a.45.45,0,0,0-.62-.1l-1.48,1.08a.44.44,0,0,0-.1.62l.74,1a15.42,15.42,0,0,0-1.47,1.47l-1-.74a.44.44,0,0,0-.62.1l-1.08,1.48a.44.44,0,0,0,.1.62l1,.74A15,15,0,0,0,426.5,18l-1.2-.39a.44.44,0,0,0-.56.29l-.57,1.74a.45.45,0,0,0,.29.56l1.2.39a15.45,15.45,0,0,0-.32,2.06h-1.26a.45.45,0,0,0-.44.44v1.83a.44.44,0,0,0,.44.44h1.26a15.46,15.46,0,0,0,.32,2.06l-1.2.39a.45.45,0,0,0-.29.56l.57,1.74a.44.44,0,0,0,.56.29l1.2-.39a14.86,14.86,0,0,0,.95,1.85l-1,.74a.44.44,0,0,0-.1.62l1.08,1.48a.44.44,0,0,0,.62.1l1-.74a15.25,15.25,0,0,0,1.47,1.47l-.74,1a.44.44,0,0,0,.1.62l1.48,1.08a.45.45,0,0,0,.62-.1l.74-1a15.2,15.2,0,0,0,1.85.95l-.39,1.2a.45.45,0,0,0,.29.56l1.74.57a.44.44,0,0,0,.56-.29l.39-1.2a15.3,15.3,0,0,0,2.06.32v1.26a.44.44,0,0,0,.44.45h1.83a.44.44,0,0,0,.44-.45V39.21a15.24,15.24,0,0,0,2.06-.32l.39,1.2a.44.44,0,0,0,.56.29l1.74-.57a.44.44,0,0,0,.28-.56l-.39-1.2a15.08,15.08,0,0,0,1.85-.95l.74,1a.45.45,0,0,0,.62.1l1.48-1.08a.44.44,0,0,0,.1-.62l-.74-1A15.5,15.5,0,0,0,452.11,34l1,.74a.45.45,0,0,0,.62-.1l1.08-1.48a.44.44,0,0,0-.1-.62l-1-.74a15.38,15.38,0,0,0,.95-1.85l1.2.39a.45.45,0,0,0,.56-.29l.57-1.74a.45.45,0,0,0-.29-.56l-1.2-.39a15.13,15.13,0,0,0,.32-2.06h1.26a.44.44,0,0,0,.44-.44Zm-6.37-5-7.88,2-.41-6.59-.09-1.42A12.12,12.12,0,0,1,451.15,18.08Zm-12.77-6-.07,1.21-.42,6.8-7.88-2A12.12,12.12,0,0,1,438.38,12.07ZM428.47,24a12.39,12.39,0,0,1,.12-1.69L436,25.19l-4.38,6.94A12.06,12.06,0,0,1,428.47,24Zm12.11,12.11a12,12,0,0,1-5.15-1.15l5.15-6.28,5.16,6.28A12,12,0,0,1,440.58,36.08Zm8.94-3.95-4.38-6.94,7.43-2.91a12.08,12.08,0,0,1-3,9.85Z"/>
      <polygon class="cls-6" points="440.58 28.21 433.78 33.15 436.38 25.15 429.57 20.21 437.98 20.21 440.58 12.22 443.18 20.21 451.58 20.21 444.78 25.15 447.38 33.15 440.58 28.21"/>
      <path class="cls-7" d="M440.58,12.78,443,20.15l.08.24h8l-6.27,4.56-.2.15.08.24,2.39,7.37-6.27-4.56-.2-.15-.2.15-6.27,4.56,2.39-7.37.08-.24-.2-.15-6.27-4.56h8l.08-.24,2.39-7.37m0-1.12L437.85,20H429l7.13,5.18-2.72,8.38,7.13-5.18,7.13,5.18L445,25.22,452.11,20H443.3l-2.72-8.38Z"/>
      <path class="cls-8" d="M450.48,5.44a4.84,4.84,0,0,0-.36-.41c-.08-.08-.25-.34-.39-.29s0,.3-.18.39-.36-.09-.44-.25-.24-.24-.36-.39-.21-.34-.34-.49a2.54,2.54,0,0,0-.52-.47c-.23-.14-.48-.39-.76-.41s-.13.08-.24.24-.2.06-.3,0-.26-.4-.53-.44a1.5,1.5,0,0,1-.78-.21c-.34-.24-1.33-.4-1.67-.07-.17.16,0,.21,0,.37s-.2.17-.35.17c-.33,0-.61.11-.52.48a.78.78,0,0,0,.21.41c.14.12.32.11.47.21.31.21,0,.57.08.85s.4.37.77.4.61.11.94.12c.15,0,.33,0,.33.22s-.19.2-.26.35c-.17.36.33.28.52.22s.22-.13.38,0,.3.3.49.37a.79.79,0,0,0,.7-.1c.21-.13.68-.23.83,0s-.46.39-.36.73.8.13,1,.13a1.31,1.31,0,0,0,.56-.09,5.94,5.94,0,0,0,1-.41c.24-.16.31-.56.34-.82A1,1,0,0,0,450.48,5.44Z"/>
      <path class="cls-9" d="M450.41,6A2.81,2.81,0,0,1,449.2,6a1.49,1.49,0,0,0-1.15,0,3.55,3.55,0,0,1-1.29.21c-.31,0-.43-.1-.17-.1.8,0,1.58-.35,1.52-.47a2.27,2.27,0,0,0-.76-.55,5.92,5.92,0,0,0-.78-.23c-.29-.06-.92-.35-1.15-.39a4.87,4.87,0,0,1-1-.47c-.39-.2-.39-.53-.18-.33s.59.29.78.43.51.18.29-.06a3.52,3.52,0,0,1-.45-.8s.63.7.84.9a3.53,3.53,0,0,0,.8.49c.16.08.1-.2,0-.45s-.33-.49-.06-.41.59.88.78.94a7,7,0,0,1,.86.51c.37.22.23-.23.08-.45s-.29-.5-.38-.65l0-.09,0,.09c.07.11.19.26.32.16s.09-.23.08-.39a2.31,2.31,0,0,0-.38-.32c-.23-.14-.48-.39-.76-.41s-.13.08-.24.24-.2.06-.3,0-.26-.4-.53-.44a1.5,1.5,0,0,1-.78-.21c-.34-.24-1.33-.4-1.67-.07-.17.16,0,.21,0,.37s-.2.17-.35.17c-.33,0-.61.11-.52.48a.78.78,0,0,0,.21.41c.14.12.32.11.47.21.31.21,0,.57.08.85s.4.37.77.4.61.11.94.12c.15,0,.33,0,.33.22s-.19.2-.26.35c-.17.36.33.28.52.22s.22-.13.38,0,.3.3.49.37a.79.79,0,0,0,.7-.1c.21-.13.68-.23.83,0s-.46.39-.36.73.8.13,1,.13a1.31,1.31,0,0,0,.56-.09,5.94,5.94,0,0,0,1-.41c.24-.16.31-.56.34-.82a1,1,0,0,0,0-.41A1.8,1.8,0,0,1,450.41,6Z"/>
      <path class="cls-10" d="M451.15,5.31a.52.52,0,0,0-.39,0c-.15.08-.12.23-.22.33s-.82,0-1.06,0a.48.48,0,0,0-.54.47,2,2,0,0,0,.12.62c.05.18.21.34.18.54s-.34.23-.44.42a.68.68,0,0,0,.07.63.94.94,0,0,0,.47.51c.28.08.61,0,.88.06a.52.52,0,0,1,.4.49c0,.39-.48.53-.63.85a.5.5,0,0,0,.07.53c.15.13.43.09.61.11s.64-.07.72.21-.09.44-.08.67.3.39.5.48a2,2,0,0,0,.9.12c.41,0,.81-.11,1.22-.13.17,0,.37,0,.49-.08a1.57,1.57,0,0,0,.21-1.33,5,5,0,0,0-.32-.85c-.25-.6-.41-1.25-.71-1.82a5.93,5.93,0,0,0-.37-.51c-.09-.13-.15-.27-.23-.4s-.22-.27-.31-.42-.08-.21-.14-.31a2.87,2.87,0,0,0-.33-.41c-.15-.17-.37-.12-.5-.31A1.18,1.18,0,0,0,451.15,5.31Z"/>
      <path class="cls-11" d="M454.65,10.82a5,5,0,0,0-.32-.85c-.25-.6-.41-1.25-.71-1.82a5.93,5.93,0,0,0-.37-.51c-.09-.13-.15-.27-.23-.4s-.16-.21-.24-.31c-.42.64-.91,1-1.38.49a6.63,6.63,0,0,0-2.32-1.63.51.51,0,0,0-.13.31,2,2,0,0,0,.12.62c.05.18.21.34.18.54s-.34.23-.44.42a.68.68,0,0,0,.07.63.94.94,0,0,0,.47.51c.28.08.61,0,.88.06a.52.52,0,0,1,.4.49c0,.39-.48.53-.63.85a.5.5,0,0,0,.07.53c.15.13.43.09.61.11s.64-.07.72.21-.09.44-.08.67.3.39.5.48a2,2,0,0,0,.9.12c.41,0,.81-.11,1.22-.13.17,0,.37,0,.49-.08A1.57,1.57,0,0,0,454.65,10.82Z"/>
      <path class="cls-10" d="M449,6.66a2,2,0,0,0,0,.84c.14-.08.19-.16.19-.27S449.08,6.84,449,6.66Z"/>
      <path class="cls-12" d="M450.19,10s0,.2.36.23.59,0,.8.18.36.44.06.44a4.34,4.34,0,0,1-1.29,0C449.94,10.73,449.82,10.34,450.19,10Z"/>
      <path class="cls-10" d="M450.92,9.38s0,.26.34.49a.65.65,0,0,1,.23.69s.62-.11.59-.44S451.89,9.57,450.92,9.38Z"/>
      <path class="cls-8" d="M451.61,5.77a1.09,1.09,0,0,0-.34,0c-.29.06-.22.31-.26.53a4.46,4.46,0,0,0-.2.66c0,.27.11.38.23.59a.47.47,0,0,1-.09.61.85.85,0,0,0-.38.59.58.58,0,0,0,.17.55c.36.26.91.22,1.2.61.16.21,0,.37-.18.48l-.41.23a1,1,0,0,0-.32.18c-.19.21,0,.47.24.54a2.61,2.61,0,0,1,.36.15,1.77,1.77,0,0,0,.36.08,1.32,1.32,0,0,1,.51.15c.08.06.11.19.17.26.36.46,1,.4,1.53.43a.67.67,0,0,1,.4.08c.25.22-.12.39-.2.53s.39.32.56.36a1,1,0,0,0,.41.08,1,1,0,0,0,.28-.15c.13-.08.26-.09.39-.15.36-.18.34-.55.39-.89a1.52,1.52,0,0,0,0-.56,2.52,2.52,0,0,0-.11-.58c0-.09-.11-.15-.16-.24a1.47,1.47,0,0,1-.21-.85,3.63,3.63,0,0,0,0-.75,1.57,1.57,0,0,0-.29-.64.7.7,0,0,1-.19-.33c0-.14,0-.29,0-.43s-.15-.61-.4-.45a1.59,1.59,0,0,0-.37.56c-.08.14-.24.2-.31,0s0-.47-.08-.7a1.9,1.9,0,0,0-.23-.64,3.59,3.59,0,0,0-.43-.55.92.92,0,0,0-.55-.23c-.23,0-.11.42-.4.33a1.91,1.91,0,0,1-.34-.22A1.8,1.8,0,0,0,452,5.8,1.84,1.84,0,0,0,451.61,5.77Z"/>
      <path class="cls-12" d="M453.42,12.23a2.63,2.63,0,0,1-1.27.11c-.84-.09-1-.54-.72-1S453.21,11.54,453.42,12.23Z"/>
      <path class="cls-13" d="M421.93,23.87c-.12-.44-.4.46-.61.51s-.16.31-.17.5c0,.74.74.42.84,1.7C422.08,27.66,422.35,25.43,421.93,23.87Z"/>
      <path class="cls-13" d="M422.69,19.73a3.42,3.42,0,0,0-.59-1.11c-.32-.37-.21.82-.21,1a2.64,2.64,0,0,1,.31,1.81C422.05,22.72,422.69,19.73,422.69,19.73Z"/>
      <path class="cls-13" d="M424,16.47s-.3-.44-.5-.34-.17.32-.32.17-.23-.17-.23.17,0,.42.17.61a1.07,1.07,0,0,1,.34.59C423.46,17.86,424,16.47,424,16.47Z"/>
      <path class="cls-13" d="M426.22,11.55a3.11,3.11,0,0,1,.06,1,1.87,1.87,0,0,1-.4.59,5.63,5.63,0,0,0,0-1.09C425.82,11.55,426.22,11.55,426.22,11.55Z"/>
      <path class="cls-13" d="M424.07,16.91a1.64,1.64,0,0,0,1-.08c.48-.21.27.32-.17.44a2.94,2.94,0,0,1-1,0Z"/>
      <path class="cls-13" d="M423.78,20.09a2.9,2.9,0,0,0-1.13.63c-.26.35.23-1.28.4-1.45s.42,0,.38.25-.34.25-.25.38.4.08.74,0S423.78,20.09,423.78,20.09Z"/>
      <path class="cls-13" d="M428.21,9.56s-.44.17-.42.46a3.67,3.67,0,0,0,.08.55l-.42.5a8.86,8.86,0,0,1,0-1.2c.06-.36.69-.74,1.07-1S428.21,9.56,428.21,9.56Z"/>
      <path class="cls-14" d="M425,33.44a3.94,3.94,0,0,0-.1,1.16c.08.29-.3.15-.44,0s-.31,0-.05.3.39.48.6.56a6.56,6.56,0,0,0,.88,1.85c0,.48,0,.9.92,1.89a8.2,8.2,0,0,0,2.44,1.58,2.2,2.2,0,0,0-1-1.68,2.83,2.83,0,0,1-1.35-1.26c-.15-.25.06-.44-.25-.5s0-.27-.44-.44a6.71,6.71,0,0,1-.59-1.43.64.64,0,0,1,.4-.8C426.2,34.68,425.4,33.94,425,33.44Z"/>
      <path class="cls-14" d="M442.21,47s.92.75,1.35,1,.84.55,1.3.86.9.73.94.92a1.42,1.42,0,0,0,.21.71.64.64,0,0,0,.49.27.54.54,0,0,1,.47.29,2.06,2.06,0,0,0,.31.59,1.44,1.44,0,0,0,1.12,0,3,3,0,0,0,.79-.61c.14-.14.51-.14.75-.28s.49-.33.25-.61-.47-.24-.82-.22a5.56,5.56,0,0,1-2-1.12,4,4,0,0,1-1.26-1.35l-3.71-.77Z"/>
      <path class="cls-15" d="M445.8,49.79a1.42,1.42,0,0,0,.21.71.64.64,0,0,0,.49.27.54.54,0,0,1,.47.29,2.26,2.26,0,0,0,.3.57.86.86,0,0,1,.12-.49,2.41,2.41,0,0,1,.54-.46c.18-.14,0-.23-.09-.17s-.31.29-.47.42-.21-.09-.12-.22.38-.25.29-.26a1.06,1.06,0,0,1-.48-.34,9.1,9.1,0,0,0-.85-.65c-.31-.26-.76-.51-.88-.64s.13-.16.33-.17,1.05,0,1.5,0a3.89,3.89,0,0,1-1-1.19l-3.65-.75-.13.08-.12.16s.92.75,1.35,1,.84.55,1.3.86S445.76,49.59,445.8,49.79Zm.41.25a.31.31,0,1,1,.08.37A.27.27,0,0,1,446.21,50Z"/>
      <path class="cls-14" d="M439.59,47.1a6,6,0,0,1-.79.87c-.31.24-.69.37-.88.57s-.41.31-.47.47,0,.35-.1.47-.33.1-.51.1-.21.08-.37.22a1.77,1.77,0,0,1-.41.33c-.12,0-.24.06-.16.14s.33.39.18.53-.29.14-.43.24a.68.68,0,0,1-.47.1c-.16,0-.32.27-.41.43s0,.33-.33.41a1.91,1.91,0,0,1-1.32-.22,4.72,4.72,0,0,1-.81-.71c-.12-.14-.33-.1-.49-.14s-.16-.2,0-.37.26-.35.39-.33a1.11,1.11,0,0,0,.71-.26c.23-.2.63-.49.69-.53s0-.43.18-.55a1,1,0,0,1,.49-.18,2.69,2.69,0,0,0,.63-.06,3.41,3.41,0,0,1,.39-.24,1.24,1.24,0,0,0,.51-.29,8.53,8.53,0,0,1,.67-.59Z"/>
      <path class="cls-15" d="M436.43,47.51a8.53,8.53,0,0,0-.67.59l-.06.06c.17,0,.38,0,.5,0s.6-.16.81,0,.22.23.12.49-.34.35-.6.48a1.82,1.82,0,0,0-.62.44c-.08.13-.46.39-.56.59s-.26.35-.2.42.1,0,.22-.14a.45.45,0,0,1,.38-.16h.12a.49.49,0,0,1,.17-.07,1.77,1.77,0,0,0,.41-.33c.16-.14.2-.22.37-.22s.39,0,.51-.1,0-.31.1-.47.27-.27.47-.47.57-.33.88-.57a6,6,0,0,0,.79-.87Zm-.92,3.2c-.16.08-.29.06-.37-.08a.19.19,0,0,0-.32,0c0,.1-.08.27-.27.14a2,2,0,0,0-1.1-.27c-.39,0-1,0-.69.08a11,11,0,0,1,1.22.22,1.17,1.17,0,0,1,.8.72c.1-.16.25-.43.4-.41a.68.68,0,0,0,.47-.1c.14-.1.27-.1.43-.24s0-.32-.11-.45C435.82,50.44,435.65,50.64,435.51,50.71Zm-1.6-1.26a.88.88,0,0,0,.68-.11,1.24,1.24,0,0,0,.5-.73.28.28,0,0,0,0-.11l-.15.1a.6.6,0,0,1-.16.34.75.75,0,0,1-.69.31.39.39,0,0,1-.35-.37.36.36,0,0,0-.13.29A.42.42,0,0,0,433.91,49.45Z"/>
      <path class="cls-16" d="M427.86,49.06a2,2,0,0,1-.47,0c-.33-.11-2.86-1.66-4.09-2.46a16.2,16.2,0,0,0-1.7-1c-.33-.17-.64-.32-1-.55a7,7,0,0,1-1.2-1.91A13.89,13.89,0,0,0,421,39.59l3.06-.07.13-1.15c.85.34,1.17.7,1.06,1.07l0,.15a3.3,3.3,0,0,0-.17,1.29,2.74,2.74,0,0,0,.49,1.68c.26.2,2.53,1.88,2.68,1.93l2.85-.23-.18-.16a14.85,14.85,0,0,0,.85-1.62,6.42,6.42,0,0,0,.48-1.72,1.41,1.41,0,0,1,0-.22.84.84,0,0,1,.7-.39l.13,0c.2.06,3.49,1.27,3.65,1.38S438,43,438.11,43.19l.68,0a7.38,7.38,0,0,1,1.34-.67,6,6,0,0,1,.74.12l.66-.44.94.91H444a8.1,8.1,0,0,1,1-1.48c.18-.1,3.1-1.37,3.44-1.48l.15,0c.36,0,.94.29,1,.48s.34,1.71.51,2.53l.62.76-.18.28c.4,0,2,.18,2.72.18a1.34,1.34,0,0,0,.36,0,34.72,34.72,0,0,0,2.81-2.19l.18-2.43a1.54,1.54,0,0,0-.24-.31.36.36,0,0,1-.09-.51c.1-.14.75-.75.77-.77l.39.21.22,1,2.43-.06a.61.61,0,0,1,.51.18.54.54,0,0,1,.07.6l1.62,3a16.52,16.52,0,0,1-1.37,1.61,2,2,0,0,1-.6.35,2,2,0,0,0-.35.18c-.26.18-2.7,1.81-3.22,2.15-.22.14-2.13,1.38-2.37,1.44a1.93,1.93,0,0,1-.36,0c-.83,0-3-.09-3.95-.22-1.12-.16-3-.52-3.51-.65a4.9,4.9,0,0,0-.87-.12c-.29,0-.61-.05-1-.11a21.18,21.18,0,0,1-2.23-.66,6.68,6.68,0,0,1-1.59.95,8.88,8.88,0,0,1-1.45-.72s-3.31.53-3.7.58a7.9,7.9,0,0,0-.77.2,21.91,21.91,0,0,1-2.81.66A38.35,38.35,0,0,1,427.86,49.06Z"/>
      <path class="cls-17" d="M457.09,38.13l.31.22.19,1h2l.46,0a.55.55,0,0,1,.46.16.48.48,0,0,1,.06.53l1.62,3.06s-1,1.25-1.36,1.54a5.86,5.86,0,0,1-.94.52l-3.22,2.15c-.52.34-2.14,1.38-2.35,1.44H454c-.86,0-3-.09-3.94-.22-1.1-.16-3-.52-3.5-.65s-1.1-.11-1.83-.24a20.93,20.93,0,0,1-2.22-.65,8.77,8.77,0,0,1-1.61.94h0a10.13,10.13,0,0,1-1.41-.71l-3.74.58c-.39.05-2,.63-3.58.86a38.39,38.39,0,0,1-4.3.34,2,2,0,0,1-.46,0c-.31-.1-2.8-1.62-4.08-2.46s-1.86-1-2.69-1.52a7,7,0,0,1-1.18-1.88,13.13,13.13,0,0,0,1.6-3.5l3,0,.18-1.2c.86.43,1,.77.95,1a3.51,3.51,0,0,0-.22,1.45,2.78,2.78,0,0,0,.51,1.73c.18.14,2.61,1.94,2.71,1.94l3-.24-.27-.25a6.11,6.11,0,0,0,.87-1.55,7.44,7.44,0,0,0,.53-1.94.79.79,0,0,1,.64-.35l.12,0c.28.08,3.49,1.27,3.63,1.37s1.37,1.63,1.37,1.63l.72,0a9.34,9.34,0,0,1,1.33-.67,6.12,6.12,0,0,1,.72.12l.71-.45.86.9,1.61,0a12.29,12.29,0,0,1,1-1.49c.18-.1,3.1-1.37,3.43-1.47l.13,0c.36,0,.89.29.91.43s.51,2.53.51,2.53l.63.78-.24.29s1.95.19,2.82.19a1.52,1.52,0,0,0,.38,0c.33-.12,2.82-2.2,2.82-2.2l.2-2.47a1.21,1.21,0,0,0-.26-.35.3.3,0,0,1-.08-.43c.1-.14.77-.76.77-.76m0-.12a.12.12,0,0,0-.08,0c-.07.07-.68.64-.78.78a.42.42,0,0,0,.1.59,1.05,1.05,0,0,1,.21.29l-.19,2.39a33,33,0,0,1-2.75,2.15,1.34,1.34,0,0,1-.34,0c-.68,0-2.06-.12-2.59-.17l.1-.12a.12.12,0,0,0,0-.15l-.61-.76c-.2-1-.49-2.38-.5-2.49s-.66-.53-1-.53l-.17,0c-.35.1-3.27,1.38-3.46,1.48A8.94,8.94,0,0,0,444,43l-1.49,0-.83-.87a.12.12,0,0,0-.09,0l-.06,0-.67.43a5.26,5.26,0,0,0-.7-.11,7,7,0,0,0-1.37.67l-.64,0c-.27-.34-1.22-1.51-1.36-1.6s-3.46-1.33-3.67-1.39l-.15,0a.89.89,0,0,0-.76.43,1.45,1.45,0,0,0,0,.23,6.4,6.4,0,0,1-.48,1.7,6.11,6.11,0,0,1-.85,1.52.12.12,0,0,0,0,.16l.08.07-2.7.21c-.26-.14-2.41-1.73-2.66-1.92a2.73,2.73,0,0,1-.46-1.64,3.25,3.25,0,0,1,.16-1.27l0-.15c.12-.4-.21-.79-1-1.18h-.11a.12.12,0,0,0-.06.09l-.17,1.1-2.91,0a.12.12,0,0,0-.11.09A13.11,13.11,0,0,1,419.35,43a.12.12,0,0,0,0,.11,6.85,6.85,0,0,0,1.22,1.94c.36.22.67.38,1,.55a16.05,16.05,0,0,1,1.69,1c1.26.83,3.77,2.36,4.11,2.47a1.75,1.75,0,0,0,.49,0,38.43,38.43,0,0,0,4.32-.35,22,22,0,0,0,2.82-.66c.35-.1.63-.18.76-.2l3.7-.57a8.46,8.46,0,0,0,1.42.7h0a6.53,6.53,0,0,0,1.65-.93,19.74,19.74,0,0,0,2.18.64c.35.06.67.09,1,.11a4.88,4.88,0,0,1,.86.12c.47.13,2.4.5,3.52.66.92.13,3.12.22,4,.22a1.9,1.9,0,0,0,.38,0c.24-.06,1.89-1.13,2.39-1.45L460,45.25a1.9,1.9,0,0,1,.34-.17,2,2,0,0,0,.62-.36c.32-.29,1.33-1.5,1.37-1.55a.12.12,0,0,0,0-.13l-1.59-3a.59.59,0,0,0-.1-.6.67.67,0,0,0-.55-.21H457.7l-.18-.9a.12.12,0,0,0,0-.07l-.31-.22-.07,0Z"/>
      <path class="cls-18" d="M444.59,43c.18-.1,3.81-2.12,4.08-2.28s.39-.29-.1-.24a7.66,7.66,0,0,0-1.72.66c-.6.25-1.48.68-1.67.78a4,4,0,0,0-.64.87C444.39,43,444.48,43.08,444.59,43Z"/>
      <path class="cls-18" d="M425,39.25c-.07-.21-.57-.52-.78-.64l-.15,1C424.63,39.63,425.05,39.5,425,39.25Z"/>
      <path class="cls-18" d="M421.61,39.92c-.23,0-.39.18,0,.34a20.84,20.84,0,0,1,3.73,2.13,4.16,4.16,0,0,1-.19-2.52Z"/>
      <path class="cls-18" d="M460,39.86c.38-.18.07-.18-.29-.2s-2.32,0-3.06,0l0,0-.2,2.47-.15.12a10.78,10.78,0,0,1,2-1.51C459.13,40.33,459.61,40,460,39.86Z"/>
      <path class="cls-18" d="M432.84,40.6a26.59,26.59,0,0,0,3.46,1.86,6.12,6.12,0,0,0,1.55.49c-.36-.45-1-1.28-1.15-1.35s-2.77-1.08-3.48-1.32C432.81,40.26,432.68,40.45,432.84,40.6Z"/>
      <path class="cls-18" d="M440.88,44.19a3.52,3.52,0,0,0,.31.8,1.12,1.12,0,0,1,0,1.47c-.18.13-.49.34-.69.31a.76.76,0,0,0-.6.11,9.87,9.87,0,0,1-1,.29c-.11,0-.74.21-1.41.38l2-.32a10.13,10.13,0,0,0,1.41.71,8.35,8.35,0,0,0,1.62-.94l.1,0a1.37,1.37,0,0,1,.21-.24c.25-.2,1-.6,1.09-.72a.76.76,0,0,0,.23-.62c0-.38.11-.58-.13-.87s-1.91-1.78-1.91-1.78a22.53,22.53,0,0,0,1.57,1.89.77.77,0,0,1,.09.72c0,.16-.23.2-.43.13a.26.26,0,0,0-.29,0s-.13.27-.2.45-.22.49-.36.51-.22-.09-.4.07a6.81,6.81,0,0,1-.85.71.61.61,0,0,1-.63-.2c.62-.22.73-.31.83-.43a4.6,4.6,0,0,1,.42-.53c.16-.15.07-.58-.11-.89s-.2-.49-.38-.8a10.65,10.65,0,0,0-.54-1.32c-.23-.27-.91-.19-1.6-.17l-.26.15a3.61,3.61,0,0,1,1.48.08C440.67,43.33,440.84,43.94,440.88,44.19Z"/>
      <path class="cls-18" d="M457.55,39.33l-.18-.89,0,0a4.35,4.35,0,0,0-.55.43C456.59,39.05,456.7,39.39,457.55,39.33Z"/>
      <path class="cls-19" d="M421.88,44.68l-.32-.21a.59.59,0,0,1-.3-.47l-.07-.8v-.7c.19,0,.36.08.54.08a.44.44,0,0,0,.39-.2.38.38,0,0,0,.06-.3.5.5,0,0,0-.23-.31l-.25-.13-1,1.52c-.13.2-.26.38-.16.52s0,.08-.07.08l-.66-.44s0-.1,0-.1h0c.18,0,.29-.17.37-.3l.9-1.35c.14-.2.27-.38.17-.52s0-.05,0-.05l0,0,.82.55a1,1,0,0,1,.44.54.65.65,0,0,1-.09.56.77.77,0,0,1-.66.32,1,1,0,0,1-.35-.06l.14.9a2.79,2.79,0,0,0,.23.84,0,0,0,0,1,0,.06h-.06Z"/>
      <path class="cls-17" d="M421.39,41l.82.55c.46.31.55.72.34,1a.73.73,0,0,1-.62.3,1,1,0,0,1-.33-.06l.08,1a2.86,2.86,0,0,0,.23.85l-.32-.21a.55.55,0,0,1-.28-.44l-.07-.8v-.7a1.19,1.19,0,0,0,.49.13.49.49,0,0,0,.43-.22.47.47,0,0,0-.19-.68l-.25-.13-1,1.54c-.11.16-.29.39-.16.57h0l-.65-.44h.06c.19,0,.31-.24.41-.38l.86-1.29c.11-.16.3-.39.17-.57h0m0-.09h0a.09.09,0,0,0-.06,0h0a.09.09,0,0,0,0,.1c.07.1,0,.25-.13.42l0,.05-.86,1.29,0,.05c-.08.12-.18.28-.3.28h-.06a.09.09,0,0,0-.08,0,.11.11,0,0,0,0,.14l.65.44.05,0a.09.09,0,0,0,.07,0,.11.11,0,0,0,0-.12c-.07-.1,0-.25.13-.42l0,0,.37-.56v.56l.07.81a.64.64,0,0,0,.32.51l.32.21.05,0,.06,0a.09.09,0,0,0,0-.11,2.74,2.74,0,0,1-.23-.82L421.7,43l.23,0a.81.81,0,0,0,.7-.34.69.69,0,0,0,.09-.6,1.08,1.08,0,0,0-.46-.56l-.82-.55-.05,0Zm-.09,1.49.47-.7.17.09a.45.45,0,0,1,.21.28.34.34,0,0,1-.05.27.39.39,0,0,1-.35.18,1.1,1.1,0,0,1-.44-.11Z"/>
      <path class="cls-19" d="M423.34,45.62l-1.45-.92s0-.1,0-.1h0c.18,0,.29-.18.37-.31l.86-1.36c.12-.19.25-.39.15-.53s0-.08.06-.08l1.12.71a1.2,1.2,0,0,0,.3.17l0,.53h-.1c0-.14-.38-.36-.55-.46a3,3,0,0,0-.45-.25l-.35.63.4.2a.38.38,0,0,0,.15.07l-.19.45s-.1,0-.1,0-.11-.18-.21-.24l-.27-.17-.46.81.41.26a1,1,0,0,0,.6.21h.14s0,0,0,0,0,0,0,0l-.45.36h-.05Z"/>
      <path class="cls-17" d="M423.37,42.37l1.11.71a1.56,1.56,0,0,0,.32.17h0l-.07.47h0c0-.19-.49-.45-.65-.55a2.38,2.38,0,0,0-.37-.2l-.41.65.42.26a.41.41,0,0,0,.17.08h0l-.24.37h0c0-.14-.14-.23-.25-.3l-.26-.16-.52.83L423,45a1,1,0,0,0,.63.22h.16l-.45.36-1.45-.92H422c.19,0,.32-.24.41-.38l.83-1.32c.1-.16.28-.4.15-.58h0m0-.09a.09.09,0,0,0-.08,0h0a.09.09,0,0,0,0,.11c.08.1,0,.25-.12.43l0,0-.83,1.32,0,0c-.08.12-.18.29-.3.29h-.05a.09.09,0,0,0-.08,0,.11.11,0,0,0,0,.08.1.1,0,0,0,0,.07l1.45.92h.05l.06,0,.45-.36a.09.09,0,0,0,0-.15l-.07,0h-.14a.94.94,0,0,1-.57-.2l-.35-.27.43-.67.18.11c.1.07.21.13.2.21a.09.09,0,0,0,0,.09l.06,0a.09.09,0,0,0,.08,0L424,44a.09.09,0,0,0,0-.13l-.05,0a.37.37,0,0,1-.12-.06l-.34-.21.32-.5.29.16.09.05c.14.08.51.31.52.43a.09.09,0,0,0,0,.07h.09a.1.1,0,0,0,.06-.07l.07-.47a.09.09,0,0,0,0-.1l-.05,0a1.46,1.46,0,0,1-.27-.15l-1.13-.72Z"/>
      <path class="cls-19" d="M423.61,45.85s0-.1,0-.1h0c.18,0,.29-.19.37-.33l.82-1.38c.12-.19.24-.4.14-.53s0-.05,0-.05l0,0,.87.52c.51.3.69.77.46,1.17a.78.78,0,0,1-.69.37,1.11,1.11,0,0,1-.55-.16.73.73,0,0,1-.24-.22h0c.19,0,.34,0,.47,0a.53.53,0,0,0,.48-.25.47.47,0,0,0-.23-.67l-.25-.12-.9,1.58c-.12.2-.19.32-.08.51,0,0,0,.08-.07.08Z"/>
      <path class="cls-17" d="M425,43.48l.86.52c.46.27.68.71.44,1.1a.73.73,0,0,1-.65.35,1,1,0,0,1-.53-.15.68.68,0,0,1-.23-.2,1,1,0,0,0,.44.11.58.58,0,0,0,.52-.28.5.5,0,0,0-.24-.74l-.26-.13-1,1.6c-.12.2-.21.34-.08.56h0l-.71-.42h.06c.19,0,.31-.25.4-.4l.8-1.34c.1-.16.27-.41.14-.58h0m0-.09h0a.09.09,0,0,0-.06,0h0a.09.09,0,0,0,0,.1c.08.11,0,.3-.11.43l0,0-.8,1.34,0,0c-.07.13-.18.3-.29.3h0a.09.09,0,0,0-.07,0,.11.11,0,0,0,0,.08.1.1,0,0,0,0,.07l.71.42h0a.09.09,0,0,0,.08,0,.11.11,0,0,0,0-.11c-.09-.16,0-.25.08-.46l.34-.57h0a.79.79,0,0,0,.26.23,1.15,1.15,0,0,0,.58.16.82.82,0,0,0,.73-.4c.25-.42.06-.92-.47-1.23l-.86-.52Zm-.1,1.62.49-.82.17.09c.19.12.38.31.21.61a.49.49,0,0,1-.44.23A.87.87,0,0,1,425,45Z"/>
      <path class="cls-19" d="M426.78,47.7l0,0,0,0-.09,0a.84.84,0,0,1-.22-.65l0-1.8a1.17,1.17,0,0,0-.07-.64s0-.08.06-.08l.56.22s0,0,0,0a.13.13,0,0,1,0,.06,1.48,1.48,0,0,0,0,.3l-.06,2,1-1.2c.26-.28.42-.48.27-.62,0,0,0-.09.05-.09l.57.23-2,2.31,0,0Z"/>
      <path class="cls-17" d="M426.49,44.48l.56.22,0,0a1.92,1.92,0,0,0,0,.4l-.06,1.91L428,45.88c.21-.23.47-.49.27-.68h0l.57.23-2.06,2.24a.9.9,0,0,1-.27-.7l0-1.8a1.23,1.23,0,0,0-.08-.67h0m0-.09a.09.09,0,0,0-.08,0h0a.09.09,0,0,0,0,.09.93.93,0,0,1,.07.52v.1l0,1.8a.89.89,0,0,0,.23.68l.05.08a.09.09,0,0,0,.07,0h0a.09.09,0,0,0,.07,0l2.06-2.24a.09.09,0,0,0,0-.15l-.57-.23h0a.09.09,0,0,0-.08.05.11.11,0,0,0,0,.12c.12.11,0,.29-.25.53l0,0-.9,1,0-1.66v-.07a1.5,1.5,0,0,1,0-.3l0,0a.09.09,0,0,0,0-.13l-.56-.22Z"/>
      <path class="cls-19" d="M429,48.1a0,0,0,0,1,0,0h0c.18-.11.17-.35.17-.53l-.05-1.61c0-.24,0-.46-.17-.52,0,0,0-.1,0-.1l1,0c.59,0,.91.23.93.62a.62.62,0,0,1-.42.59h0a.67.67,0,0,1,.7.67.87.87,0,0,1-.5.78,2,2,0,0,1-.88.16Zm.85-1.39-.29,0,.07,1,.33,0a.65.65,0,0,0,.49-.16.44.44,0,0,0,.12-.33c0-.36-.35-.49-.63-.49v0Zm0-1.09-.28,0,.07.76.09,0a.8.8,0,0,0,.51-.18.31.31,0,0,0,.08-.23.38.38,0,0,0-.41-.35v0Z"/>
      <path class="cls-17" d="M429.94,45.3c.51,0,.81.22.82.57a.58.58,0,0,1-.4.55.76.76,0,0,1,.7.71.83.83,0,0,1-.47.74,2.08,2.08,0,0,1-.92.16l-.68,0h0c.2-.09.17-.39.16-.58l-.05-1.56c0-.19,0-.49-.2-.56h0l1,0h.06m-.4,1.11h.14c.27,0,.65-.11.64-.45a.42.42,0,0,0-.45-.4h-.07l-.28,0,0,.81m.46,1.32c.32,0,.62-.17.61-.54s-.34-.53-.68-.53h-.09l-.29,0,0,1,.36,0H430m-.06-2.52h-.06l-1,0a.09.09,0,0,0-.09.09.11.11,0,0,0,.06.1c.12,0,.13.21.13.41v.06l.05,1.56v.05c0,.2,0,.38-.11.43a.09.09,0,0,0-.06.09.11.11,0,0,0,.1.1h0l.68,0h.06a2,2,0,0,0,.9-.17.92.92,0,0,0,.52-.83.81.81,0,0,0-.55-.74.6.6,0,0,0,.25-.52c0-.41-.37-.66-.92-.66Zm-.33.47.19,0h.06a.33.33,0,0,1,.36.31.25.25,0,0,1-.07.19.73.73,0,0,1-.48.16h0l0-.63Zm0,1.08.2,0h.08c.26,0,.57.12.58.44a.39.39,0,0,1-.1.3.57.57,0,0,1-.41.15H430l-.28,0,0-.85Z"/>
      <path class="cls-19" d="M431.2,47.95h0a0,0,0,0,1,0,0h0c.17-.12.15-.34.13-.53l-.16-1.61c0-.24,0-.46-.2-.5,0,0,0-.1,0-.11l1-.09h.17c.47,0,.77.21.8.56a.62.62,0,0,1-.38.62h.08a.66.66,0,0,1,.68.62.87.87,0,0,1-.44.81,2,2,0,0,1-.87.22Zm.91-1.46H432l-.29,0,.14,1,.31,0a.64.64,0,0,0,.48-.18.43.43,0,0,0,.1-.35A.54.54,0,0,0,432.11,46.49Zm-.17-1.09h-.1l-.27.06.12.76.08-.06a.8.8,0,0,0,.5-.21.3.3,0,0,0,.07-.23A.37.37,0,0,0,431.94,45.4Z"/>
      <path class="cls-17" d="M432.07,45.09c.45,0,.72.19.75.52a.58.58,0,0,1-.36.57.76.76,0,0,1,.74.66.83.83,0,0,1-.42.77,2.08,2.08,0,0,1-.91.22l-.68.07h0c.2-.1.14-.4.13-.58l-.15-1.55c0-.18,0-.49-.23-.54h0l1-.09h.17m-.43,1.13h.14c.27,0,.64-.15.61-.49a.42.42,0,0,0-.44-.37h-.11l-.27.06.08.81m.13,1.29h.36c.34,0,.67-.19.63-.58a.58.58,0,0,0-.65-.49H432l-.29,0,.1,1m.31-2.51h-.17l-1,.09a.09.09,0,0,0-.09.09.11.11,0,0,0,.07.1c.12,0,.15.2.16.41v.06l.15,1.55v.06c0,.21,0,.38-.08.44a.09.09,0,0,0-.05.09.11.11,0,0,0,.1.1h0l.68-.07h.05a2,2,0,0,0,.9-.23.92.92,0,0,0,.47-.86.8.8,0,0,0-.6-.7.6.6,0,0,0,.22-.53c0-.38-.35-.61-.84-.61Zm-.41.5.19,0h.09a.33.33,0,0,1,.35.28.25.25,0,0,1-.06.2.7.7,0,0,1-.47.19h0l-.06-.63Zm.11,1.08.2,0h.14a.49.49,0,0,1,.55.41.38.38,0,0,1-.09.31.59.59,0,0,1-.44.17h-.27l-.08-.84Z"/>
      <path class="cls-19" d="M433.42,47.54a0,0,0,0,1,0,0h0c.17-.13.13-.37.1-.54l-.26-1.58c0-.22-.07-.46-.24-.49,0,0,0-.1,0-.1l.78-.12s.05.09,0,.1-.11.3-.08.48l.3,1.84.51-.09a1,1,0,0,0,.65-.35h.06s0,0,0,0l-.12.58Z"/>
      <path class="cls-17" d="M433.76,44.69h0c-.2.11-.12.41-.09.59l.29,1.78.56-.05a1,1,0,0,0,.68-.37h0l-.13.58-1.68.27h0c.2-.11.12-.4.09-.59l-.25-1.54c0-.19-.05-.49-.27-.53h0l.78-.12m0-.09h0l-.78.12a.09.09,0,0,0-.08.1.11.11,0,0,0,.08.09c.13,0,.16.2.19.4v.05l.25,1.54v0c0,.2.06.38-.05.44a.09.09,0,0,0,0,.1.11.11,0,0,0,.1.09h0l1.68-.27a.09.09,0,0,0,.08-.07l.13-.58a.09.09,0,0,0-.09-.11h0l-.07,0a.93.93,0,0,1-.62.33L434,47l-.27-1.69v-.06c0-.2-.05-.37.05-.43a.09.09,0,0,0,0-.1.11.11,0,0,0-.1-.09Z"/>
      <path class="cls-19" d="M435.42,47.15a0,0,0,0,1,0,0h0c.17-.13.13-.37.1-.54L435.21,45c0-.24-.07-.46-.23-.5,0,0,0-.1,0-.1l.78-.12s0,.09,0,.1-.11.32-.08.49l.26,1.59c0,.22.07.46.23.49,0,0,0,.1,0,.1Z"/>
      <path class="cls-17" d="M435.76,44.3h0c-.19.11-.12.41-.09.59l.25,1.54c0,.18.05.49.27.53h0l-.77.12h0c.19-.11.12-.4.09-.59L435.26,45c0-.19,0-.49-.27-.54h0l.78-.12m0-.09h0l-.78.12a.09.09,0,0,0-.08.1.11.11,0,0,0,.08.09c.12,0,.16.2.19.4V45l.25,1.54v.05c0,.2.06.38-.05.44a.09.09,0,0,0,0,.1.11.11,0,0,0,.1.09h0l.77-.12a.09.09,0,0,0,.08-.1.11.11,0,0,0-.08-.09c-.12,0-.16-.2-.19-.4v-.05l-.25-1.54v-.05c0-.2-.06-.38.05-.44a.09.09,0,0,0,0-.1.11.11,0,0,0-.1-.09Z"/>
      <path class="cls-19" d="M437.51,46.76A1.39,1.39,0,0,1,436,45.53a1.44,1.44,0,0,1,.25-1.12,1.53,1.53,0,0,1,1-.57,2.68,2.68,0,0,1,.42,0h.35l.12.51a5.71,5.71,0,0,0-.64-.07l-.19,0a.9.9,0,0,0-.75,1.1,1.06,1.06,0,0,0,1,.94h.16a1.79,1.79,0,0,0,.81-.39l0,.55a1.37,1.37,0,0,1-.63.26A2.33,2.33,0,0,1,437.51,46.76Z"/>
      <path class="cls-17" d="M437.71,43.85h.34l.07.47a1.49,1.49,0,0,0-.59-.13l-.2,0a1,1,0,0,0-.79,1.16,1.1,1.1,0,0,0,1,1h.17a1.82,1.82,0,0,0,.83-.4h0l-.13.51a1.45,1.45,0,0,1-.6.22l-.37,0a1.33,1.33,0,0,1-1.42-1.19,1.37,1.37,0,0,1,1.2-1.63,2.64,2.64,0,0,1,.42,0m0-.09a2.71,2.71,0,0,0-.43,0,1.57,1.57,0,0,0-1,.59,1.48,1.48,0,0,0-.26,1.15,1.43,1.43,0,0,0,1.51,1.27,2.42,2.42,0,0,0,.38,0,1.54,1.54,0,0,0,.63-.24.09.09,0,0,0,0-.05l.13-.51a.09.09,0,0,0-.09-.12h0l-.05,0a1.74,1.74,0,0,1-.78.38h-.15a1,1,0,0,1-1-.9.85.85,0,0,1,.71-1h.18a1.39,1.39,0,0,1,.55.12h0l.06,0a.09.09,0,0,0,0-.09l-.07-.47a.09.09,0,0,0-.09-.08Z"/>
      <path class="cls-19" d="M438.69,46.65a0,0,0,0,1,0,0h0a1,1,0,0,0,.29-.6l.42-1.87c0-.11,0-.21,0-.27a.13.13,0,0,0-.09,0s0-.1,0-.11l.64-.1,1.23,2c.15.25.25.42.47.49,0,0,0,.1,0,.1l-.83.13s-.05-.09,0-.1.13-.1,0-.32l-.34-.58-1,.19-.08.57c-.05.25,0,.32.11.35,0,0,0,0,0,.06s0,0,0,0Zm.82-1.5.75-.19-.53-.8Z"/>
      <path class="cls-17" d="M439.92,43.65l1.18,2c.13.22.24.43.49.52h0l-.84.13h0c.19-.12.15-.16,0-.43l-.31-.54-1,.17-.12.61c0,.24-.06.36.15.41h0l-.75.12h0a.93.93,0,0,0,.3-.64l.41-1.81c0-.16.08-.34-.12-.37h0l.64-.1m-.45,1.48.8-.13-.56-1-.24,1.09m.45-1.58h0l-.64.1a.09.09,0,0,0-.08.11.11.11,0,0,0,.08.09.09.09,0,0,1,.06,0s0,.14,0,.22l-.41,1.82V46a.76.76,0,0,1-.25.53.09.09,0,0,0,0,.1.11.11,0,0,0,.1.08h0l.75-.12a.09.09,0,0,0,.08-.12.12.12,0,0,0-.08-.08c-.09,0-.09,0-.1-.06a.67.67,0,0,1,0-.24l.11-.54.9-.15.28.48,0,0c.11.19.11.19,0,.26a.09.09,0,0,0,0,.09.11.11,0,0,0,.1.09h0l.84-.13a.09.09,0,0,0,.08-.1.11.11,0,0,0-.07-.09c-.2-.06-.29-.23-.41-.42l0-.06-1.18-2a.09.09,0,0,0-.08,0ZM439.59,45l.16-.72.37.64-.53.09Z"/>
      <path class="cls-19" d="M444.32,46.7s0-.1,0-.11.2-.26.22-.43l.25-1.6c0-.24.08-.46-.07-.54,0,0,0-.05,0-.06s0,0,0,0l.78.12s0,.1,0,.1-.2.27-.22.44l-.25,1.59c0,.22-.08.46.07.54s0,.05,0,.06,0,0,0,0Z"/>
      <path class="cls-17" d="M444.75,44l.78.12h0c-.22,0-.24.35-.27.54L445,46.18c0,.18-.1.48.09.59h0l-.77-.12h0c.22,0,.24-.35.27-.53l.24-1.54c0-.19.11-.48-.09-.59h0m0-.09-.06,0a.09.09,0,0,0,0,.06h0a.09.09,0,0,0,0,.09c.11.06.09.23.05.44v.06l-.24,1.54v.06c0,.2-.07.37-.18.39a.09.09,0,0,0-.08.08.11.11,0,0,0,.08.12l.77.12h0l.06,0a.09.09,0,0,0,0-.07.11.11,0,0,0,0-.1c-.11-.06-.09-.24-.05-.43v-.06l.24-1.54V44.6c0-.2.07-.38.19-.41a.09.09,0,0,0,.07-.09.11.11,0,0,0-.08-.11l-.78-.12Z"/>
      <path class="cls-19" d="M446.18,47.06s0-.1,0-.1.19-.27.21-.44l.24-1.88h-.44a.59.59,0,0,0-.35.1s-.05,0-.06,0,0,0,0,0l.2-.47h.18l1.66.21H448l-.14.54h-.1c0-.1-.11-.15-.29-.17l-.37,0-.18,1.83c0,.23,0,.37.13.51,0,0,0,.05,0,.06s0,0,0,0Z"/>
      <path class="cls-17" d="M446,44.22h0a.63.63,0,0,0,.15,0l1.63.21h.2l-.19.47h0c0-.15-.2-.19-.33-.21l-.37,0-.23,1.87c0,.23-.05.39.15.55h0l-.81-.1h0c.22-.05.23-.35.25-.54l.23-1.83-.36,0h-.12a.64.64,0,0,0-.38.11h0l.2-.47m0-.09a.11.11,0,0,0-.1.06l-.2.47a.09.09,0,0,0,.08.13h0l.06,0a.56.56,0,0,1,.33-.09h.11l.27,0-.22,1.73v.06c0,.2-.05.37-.17.4a.09.09,0,0,0-.07.09.11.11,0,0,0,.08.11l.81.1h0l.06,0a.09.09,0,0,0,0-.07.12.12,0,0,0,0-.09c-.15-.12-.14-.22-.11-.45l.22-1.78.28,0c.2,0,.24.09.25.14a.09.09,0,0,0,.08.07h0a.11.11,0,0,0,.1-.06l.19-.47a.09.09,0,0,0-.08-.13h-.2l-1.63-.21h0l-.09,0h0Z"/>
      <path class="cls-19" d="M449.6,47.67s0-.1,0-.1.16,0,.09-.31l-.16-.66-1-.09-.24.53c-.12.23-.13.29,0,.37s0,.1,0,.1l-.75-.1s0-.1,0-.1c.21-.08.31-.25.41-.45l.93-1.68c.05-.1.1-.19.08-.25a.13.13,0,0,0-.08-.07s0-.1,0-.1l.65.08.63,2.24c.07.29.12.48.31.61,0,0,0,.05,0,.06s0,0,0,0Zm-.88-1.48.77,0-.29-.92Z"/>
      <path class="cls-17" d="M448.89,44.79l.65.08.59,2.21a1,1,0,0,0,.33.63h0l-.84-.11h0c.21-.07.19-.11.11-.41l-.15-.61-1-.13-.29.55c-.11.22-.16.33,0,.43h0l-.75-.1h0c.25-.09.35-.31.47-.53l.9-1.62c.08-.14.18-.3,0-.39h0m.6,1.48-.27-1.08-.54,1,.81.1m-.6-1.57a.09.09,0,0,0-.09.08h0a.09.09,0,0,0,.05.1s0,0,.05,0,0,.13-.07.19v0l-.9,1.62,0,.06c-.1.19-.19.36-.39.43a.09.09,0,0,0-.06.08.11.11,0,0,0,.08.12l.75.1h0l.06,0a.09.09,0,0,0,0-.06.11.11,0,0,0,0-.11c-.09,0-.12-.06,0-.3l.26-.49.9.11.13.54v.05a.7.7,0,0,1,0,.21s0,0-.1,0a.09.09,0,0,0-.07.07.11.11,0,0,0,0,.08.1.1,0,0,0,.06,0l.84.11h0l.06,0a.09.09,0,0,0,0-.07.12.12,0,0,0,0-.1.79.79,0,0,1-.27-.52l0-.06-.59-2.21a.09.09,0,0,0-.08-.07l-.65-.08Zm-.06,1.39.36-.65.18.72-.53-.07Z"/>
      <path class="cls-19" d="M450.67,47.82s0-.1,0-.1.17-.27.18-.45l.09-1.61c0-.24,0-.46-.12-.53,0,0,0-.05,0-.06s0,0,0,0l.79,0s0,.1,0,.1-.17.28-.18.46l-.11,1.86.64,0a1,1,0,0,0,.59-.21s.05,0,.06,0,0,0,0,0l-.25.54a0,0,0,0,1,0,0Z"/>
      <path class="cls-17" d="M450.83,45.06l.79,0h0c-.21.06-.2.37-.21.56l-.11,1.8.56.07H452a1,1,0,0,0,.62-.22h0l-.25.54-1.7-.1h0c.22-.06.21-.37.22-.55l.09-1.55c0-.19.05-.49-.15-.58h0m0-.09-.06,0a.09.09,0,0,0,0,.07h0a.09.09,0,0,0,.06.09c.12.05.11.23.1.43v.05l-.09,1.56v.06c0,.2,0,.38-.15.41a.09.09,0,0,0-.07.09.11.11,0,0,0,.09.11l1.7.1h0a.09.09,0,0,0,.09-.05l.25-.54a.09.09,0,0,0-.08-.13h0l-.07,0a.93.93,0,0,1-.56.2h-.11l-.47-.06.1-1.71v-.06c0-.2,0-.38.14-.41a.09.09,0,0,0,.07-.08.11.11,0,0,0-.09-.11l-.79,0Z"/>
      <path class="cls-19" d="M453,47.92s0-.1,0-.1.16-.3.15-.47V45.73c0-.24,0-.47-.15-.53,0,0,0-.05,0-.06s0,0,0,0h.79s0,.1,0,.1-.15.3-.15.47v1.61c0,.22,0,.46.15.52,0,0,0,.05,0,.06s0,0,0,0Z"/>
      <path class="cls-17" d="M453,45.15h.78c-.21.08-.18.38-.18.57v1.56c0,.19,0,.49.18.57H453c.21-.07.18-.38.18-.57V45.73c0-.19,0-.49-.18-.57h0m0-.09a.09.09,0,0,0-.09.09h0a.09.09,0,0,0,.06.09c.12,0,.12.22.12.42v1.67c0,.2,0,.38-.12.43a.09.09,0,0,0-.06.09A.1.1,0,0,0,453,48h.79a.09.09,0,0,0,.09-.09.11.11,0,0,0-.06-.1c-.12,0-.12-.23-.12-.43V45.68c0-.2,0-.38.12-.43a.09.09,0,0,0,.06-.09.11.11,0,0,0-.09-.11H453Z"/>
      <path class="cls-19" d="M454.65,48l0,0h0a.94.94,0,0,0,0-.66l-.42-1.87c0-.16-.07-.26-.15-.26h-.11l.54-.44,2,1.26a1.05,1.05,0,0,0,.56.25h0s.09,0,.1,0l-.7.55s-.08-.06-.07-.07.08-.14-.14-.29l-.56-.38-.8.59.17.55c.05.21.09.28.18.28h0l.08,0-.63.5h0Zm.13-1.71.6-.49-.82-.49Z"/>
      <path class="cls-17" d="M454.51,44.72,456.41,46a1.09,1.09,0,0,0,.59.26h.08l-.7.48h0c.11-.19.06-.21-.19-.38l-.51-.35-.86.59.15.6c.05.2.09.32.22.32h.09l-.63.43h0a.93.93,0,0,0,0-.71l-.41-1.81c0-.13-.06-.29-.2-.29H454l.54-.37m.22,1.53.67-.46-.92-.63.25,1.09m-.22-1.63-.05,0-.54.37a.09.09,0,0,0,0,.14.12.12,0,0,0,.09,0H454s.07.06.1.2v0l.41,1.81v.06a.77.77,0,0,1,0,.58.09.09,0,0,0,0,.1.11.11,0,0,0,.06,0h.08l.63-.43a.09.09,0,0,0,0-.13.12.12,0,0,0-.09-.06h-.08c-.05,0-.08,0-.13-.24l-.14-.54.75-.52.46.32,0,0c.18.12.18.12.12.23a.09.09,0,0,0,0,.1.11.11,0,0,0,.09,0h0l.7-.48a.09.09,0,0,0,0-.13.12.12,0,0,0-.09-.05H457a.89.89,0,0,1-.48-.21l-.05,0-1.91-1.26-.05,0Zm.29,1.47-.17-.72.61.42-.44.31Z"/>
      <path class="cls-19" d="M457.15,46.26l0,0h0a.51.51,0,0,0-.14-.55l-1-1.32c-.12-.17-.2-.27-.38-.27h0l-.09,0,.48-.43.15,0,.1,0,2.35.63-1-1.18c-.13-.17-.2-.27-.38-.27h0s-.09,0-.1,0l.59-.51s.08.05.08.07c-.09.2,0,.31.13.5l1.38,1.86a.57.57,0,0,1-.37.13,1.62,1.62,0,0,1-.44-.08l-2.21-.6,1,1.21c.13.17.21.28.38.28h.1l-.59.51Z"/>
      <path class="cls-17" d="M457.74,42.39h0c-.1.23,0,.36.14.55l1.38,1.86a1.08,1.08,0,0,1-.34.06,1.57,1.57,0,0,1-.43-.08l-2.21-.6,1,1.28c.13.17.22.3.42.3h.07l-.59.44h0c.1-.23,0-.37-.14-.55l-1-1.32c-.13-.17-.22-.29-.42-.29h-.07l.48-.36h0a.26.26,0,0,0,.11,0l.1,0,2.35.63-.93-1.26c-.12-.17-.21-.29-.41-.29h-.08l.59-.43m0-.09h-.05l-.59.43a.09.09,0,0,0,0,.13.12.12,0,0,0,.09.05h.07c.14,0,.21.08.33.24l.78,1.05-2.09-.56-.09,0-.09,0-.06,0-.05,0-.48.36a.09.09,0,0,0,0,.13.12.12,0,0,0,.09,0h.06c.15,0,.21.08.34.25l1,1.32c.15.2.2.28.13.46a.09.09,0,0,0,0,.09.11.11,0,0,0,.07,0h.07l.59-.44a.09.09,0,0,0,0-.14.12.12,0,0,0-.08,0h-.06c-.15,0-.21-.08-.34-.25l-.8-1.08,1.95.53a1.64,1.64,0,0,0,.45.08,1.17,1.17,0,0,0,.37-.06.09.09,0,0,0,0-.15L458,42.89c-.15-.2-.2-.28-.13-.45a.09.09,0,0,0,0-.09.11.11,0,0,0-.07,0Z"/>
      <path class="cls-19" d="M459.31,44.76l0,0h0a1,1,0,0,0,0-.66l-.41-1.88c0-.16-.07-.26-.15-.26h-.11l.55-.44,2,1.27a1.05,1.05,0,0,0,.56.25h.11l-.7.55s-.08-.06-.07-.07.09-.14-.14-.29l-.55-.39-.81.59.17.55c.05.21.08.28.18.28H460l-.63.5Zm.13-1.71.6-.49-.82-.5Z"/>
      <path class="cls-17" d="M459.18,41.52l1.9,1.27a1.1,1.1,0,0,0,.59.26h.08l-.7.47h0c.12-.19.06-.21-.19-.38l-.51-.36-.86.58.15.6c0,.2.09.32.22.32h.09l-.63.43h0a.93.93,0,0,0,0-.71l-.4-1.81c0-.14-.06-.29-.2-.29h-.08l.54-.37m.22,1.53.67-.46-.92-.63.25,1.09m-.22-1.63-.05,0-.54.37a.09.09,0,0,0,0,.13.12.12,0,0,0,.09.05h.06s.07.06.1.2l.4,1.83,0,.07a.76.76,0,0,1,0,.58.09.09,0,0,0,0,.1.12.12,0,0,0,.09,0h0l.63-.43a.09.09,0,0,0,0-.13.12.12,0,0,0-.09-.05h-.08c-.05,0-.08,0-.13-.25l-.13-.54.75-.51.46.32,0,0c.18.13.18.13.12.23a.09.09,0,0,0,0,.1.11.11,0,0,0,.09,0h0l.7-.47a.09.09,0,0,0,0-.14.13.13,0,0,0-.09,0h-.07a.88.88,0,0,1-.48-.21l-.06,0-1.9-1.27-.05,0Zm.28,1.47-.16-.72.61.42-.44.3Z"/>
      <path class="cls-20" d="M450.68,43.89h-.47a40.76,40.76,0,0,1-4.62-.78c.67-.31.22-.19,1.43-.23.58,0,2.89-.5,2.89-.5l.14.73Z"/>
      <path class="cls-20" d="M431.17,44.31a10.08,10.08,0,0,0,2.83-.56,12.64,12.64,0,0,1,2.92-.58,13.93,13.93,0,0,0-1.47-.64,9.72,9.72,0,0,0-3.6-.26,7.69,7.69,0,0,1-1,1.79Z"/>
      <path class="cls-14" d="M429.66,8.59a12.81,12.81,0,0,0-2.89,3A30.87,30.87,0,0,0,423.11,18a14.79,14.79,0,0,0-1.35,6.15,36.75,36.75,0,0,0,.33,4c0,.5.3.66.42,1s.64,1.59.76,1.93A14,14,0,0,0,425.18,34a13.19,13.19,0,0,1,2.33,3.43c.32.94.2,1.67.56,2.21a9.48,9.48,0,0,0,1,1.15s0,.54.76.42a33.17,33.17,0,0,0,4.2,2.57,13.48,13.48,0,0,1,2.63-.56,11.27,11.27,0,0,1-2.41-1.59c-.51-.44-.48-.72-1-.76s-.45.52-.45.52-1.21-.78-1.67-1.16A6.12,6.12,0,0,1,429.15,38a3.78,3.78,0,0,1-.6-2.41c0-.34-.16-.4-.3-.4a.42.42,0,0,0-.34.32c-.34-.4-.82-1.24-1.49-2.09a24.48,24.48,0,0,1-2.35-3.27,11.83,11.83,0,0,1-1.45-4.94,13,13,0,0,1,.88-6.69,20.53,20.53,0,0,1,2.77-5.16C427.47,11.86,429.66,8.59,429.66,8.59Z"/>
      <path class="cls-21" d="M425.76,34.3a.92.92,0,0,0,0-.6c-.13-.23-.53-.46-.53-.65s0-.17,0-.27a.48.48,0,0,1,.32-.23.08.08,0,0,0,0-.09l-.37-.48c-.23-.06-1-.19-1-.08a.75.75,0,0,1-.21.23,4.4,4.4,0,0,0-.53-1.32,2.11,2.11,0,0,0-.65-.76c.17.43.35.89.42,1.07A14,14,0,0,0,425.18,34a13.19,13.19,0,0,1,2.33,3.43,9.8,9.8,0,0,1,.38,1.58,3.13,3.13,0,0,1,.79.59,16.65,16.65,0,0,0-1.45-3.33A12.75,12.75,0,0,0,425.76,34.3Z"/>
      <path class="cls-21" d="M422.1,28.19c0,.5.3.66.42,1l.19.49a2.48,2.48,0,0,0-.29-1,1.42,1.42,0,0,1-.25-1.22,5,5,0,0,0-.29-1.87c0-.06,0-.06-.06,0C421.9,26.72,422.1,27.84,422.1,28.19Z"/>
      <path class="cls-12" d="M457.54,28.46a3.13,3.13,0,0,1,0-.52c0-.27-.2-.63-.12-.88a.78.78,0,0,1,.51-.39c.11,0,.1,0,.18.09a1.77,1.77,0,0,0,.38.31c.21.1.15.09.46-.06a1.36,1.36,0,0,0,.86-1.1,5.34,5.34,0,0,1,.07-.75c0-.16,0-.62.16-.73s.33.16.47.23c.36.18.34-.44.63-.5s.26.14.43,0,.52-.78.69-.27c.05.16,0,.31,0,.47a.75.75,0,0,0,.12.43.76.76,0,0,1,.13.48c0,.19-.11.25-.2.41s-.08.1,0,.19.13,0,.23.08a.41.41,0,0,1,.16.41,1.62,1.62,0,0,1-.47.84c-.08.09-.31.23-.15.35s.3,0,.38.22-.19.73-.45,1a3.41,3.41,0,0,1-1.22.53,4.89,4.89,0,0,1-1.34.07,5.64,5.64,0,0,1-1-.06A1,1,0,0,1,457.54,28.46Z"/>
      <path class="cls-22" d="M457.6,28.67a2.76,2.76,0,0,1,0-.69,2.31,2.31,0,0,1,.21-.56c.14-.26.33-.21.58-.2s.77-.51,1-.81a12.49,12.49,0,0,0,.58-1.56c.1-.21.13-.43.34-.31.43.23.32.74.31,1.12s-.09,1-.12,1.44c0,.29-.07.42.27.33a.69.69,0,0,1,.81.2c.14.18.17.38.46.34s.42-.12.35.17a1.07,1.07,0,0,1-.37.52,2.71,2.71,0,0,1-1.57.62,6.3,6.3,0,0,1-2-.39,4.71,4.71,0,0,1-.73-.17Z"/>
      <path class="cls-10" d="M453.27,25c-.09.18-.1.25-.3.31s-.34,0-.49.19a1,1,0,0,0-.17,1c.13.39.57.49.73.83a2.07,2.07,0,0,1,.14,1.07,3.3,3.3,0,0,1-.06,1.15c-.16.32-.6-.14-.84.21a.39.39,0,0,0,0,.46.59.59,0,0,1,.09.51c-.05.29-.11.5.14.7a3.46,3.46,0,0,0,.61.32c.26.13.22.33.35.53s.89.32.75.71c-.08.22-.29.08-.47.07s-.26.1-.3.3.05.22.19.35.2.27.32.38a1.13,1.13,0,0,0,.32.15c.13.06.14.15.27.24.35.23.63-.47.83-.66A2.16,2.16,0,0,0,456,33a7.26,7.26,0,0,1,.29-.73c.16-.27.54-.5.63-.81a2.42,2.42,0,0,0,0-.73,1.37,1.37,0,0,1,.06-.63,1.46,1.46,0,0,0,.16-.51.56.56,0,0,0-.15-.42c-.13-.11-.34,0-.48-.07s-.31-.74-.7-.53c-.13.07-.29.34-.47.21s0-.36.06-.51-.18-.44-.25-.68a.7.7,0,0,1,0-.41,3.46,3.46,0,0,0,.07-.45c.05-.34.22-.64.25-1a.69.69,0,0,0-.22-.47.92.92,0,0,1-.13-.59c0-.13,0-.39-.13-.44s-.19.17-.24.28-.14.34-.3.25a1.6,1.6,0,0,1-.3-.39c-.15-.2-.42-.32-.61-.09S453.38,24.78,453.27,25Z"/>
      <path class="cls-23" d="M455.3,32.92a7.45,7.45,0,0,0-.1-1.48,7.56,7.56,0,0,1-1.15-.13c-.08,0,0-.14.46-.13a1.78,1.78,0,0,0,.62,0s-.31-1.46-.44-1.84a1.76,1.76,0,0,1-.12-.61s.07-.44.13-.07a10.13,10.13,0,0,0,.28,1c.05.22.1.35.17.13s.25-.38.2-.17a2.69,2.69,0,0,0-.18.69c0,.2.22.89.22,1.08.2-.06.31,0,.45-.21s.16,0,0,.14-.38.23-.44.28.06.7,0,1S455.3,32.92,455.3,32.92Z"/>
      <path class="cls-24" d="M445.59,43.1l1.11-.63s-.15-.89.43-1.19,1-.3,1.29.3a17,17,0,0,0,2.3-1.59,4.28,4.28,0,0,0,1.09-1.77c.25-.66.71-1.52.71-1.52a13,13,0,0,1-.13-1.31.38.38,0,0,1,.43-.33c.23,0,.4.1.43.41.43-.51,1.11-1.53,1.52-2.12s2-2.4,2.38-3a24.64,24.64,0,0,0,1.09-2.88,5.84,5.84,0,0,0,.35-2.53c-.1-.78-.16-2.07-.33-3.14a5.22,5.22,0,0,0-.58-1.62c-.08-.31-.39-.06-.39-.34s.29-.27.19-.65-.58-1.61-.83-2.32-1.16-2.8-1.26-3.14.53-1.08.81-.27,1.2,3.31,1.43,3.75a9.8,9.8,0,0,1,.9,2.37,2.75,2.75,0,0,0,.45,1.24c.12.2.31.27.33.59a3.42,3.42,0,0,0,.08,1.06c.14.41.48.19.57.69a3.8,3.8,0,0,1,0,.88,4.78,4.78,0,0,1,.2,2.22c-.18,1.57-1.63,4-2.59,5.35a26.13,26.13,0,0,1-1.71,2.22c-.1.14-.1.61-.45.92s-.47.22-.73.63A9,9,0,0,0,453.56,38a10.09,10.09,0,0,0,1.49-1.9c.24-.39.78-1.16.9-1.41a7.54,7.54,0,0,1,.43-1.08c.22-.33.45-.08.75-.47s.09-1.26.09-1.26l.46-.82.51,1.43a20.51,20.51,0,0,1-1.22,2.2c-.24.22-.39.33-.51.47s0,.51-.18.78l-.67,1c-.17.27-.54.64-.7.92a7.72,7.72,0,0,1-.82,1c-.37.43-.61.5-.74.9a1.72,1.72,0,0,1-.71,1.08,5.43,5.43,0,0,1-1.25.82,10,10,0,0,0-1.1.74,5.5,5.5,0,0,0-1.08.8c-.39.43-.49.43-.49.43A22.78,22.78,0,0,1,445.59,43.1Z"/>
      <path class="cls-22" d="M454.06,26.45s.35.31.52.49a.6.6,0,0,1,.11.67,2.29,2.29,0,0,0-.13.89,1,1,0,0,1-.23.87c-.25.2-.08.39-.35.41a1.87,1.87,0,0,1-.53-.06l.08-2.12Z"/>
      <path class="cls-25" d="M452.91,29.62c.37.09.43.21.77,0s0-.47.25-.76-.08-.35-.16-.53.25-.78.35-1.08,0-1-.41-1.15-.35.53-.94.25a.7.7,0,0,1-.34-.77,1,1,0,0,0-.1.88c.13.39.57.49.73.83a2.07,2.07,0,0,1,.14,1.07,3.3,3.3,0,0,1-.06,1.15A.2.2,0,0,1,452.91,29.62Z"/>
      <path class="cls-26" d="M452.8,40c-.24,0-.11.19-.16.43s-.22.16-.48.16-.24.16-.38.32a.65.65,0,0,1-.51.27c-.16,0-.24-.08-.24.13s0,.32-.19.3a.49.49,0,0,0-.43.22c-.11.13-.22.27-.4.27a1.13,1.13,0,0,0-.46.16c-.14.05-.35,0-.46.24s-.14.3-.3.27-.28-.35-.57-.67a.91.91,0,0,1-1.33.41c-.15-.12-.19-.08-.18,0s.85.94.85.94l-.2.06c.75.12,1.37.18,1.37.18s.1,0,.49-.43a5.5,5.5,0,0,1,1.08-.8,10,10,0,0,1,1.1-.74,5.43,5.43,0,0,0,1.25-.82,1.76,1.76,0,0,0,.63-.8A2.27,2.27,0,0,0,452.8,40Z"/>
      <path class="cls-26" d="M455.22,37.42c-.06,0-.23.21-.27.26s-.19.13-.35.3-.38.46-.54.65-.27.16-.49.08-.11-.38.05-.67a1.69,1.69,0,0,0,.12-.27l-.19.2a9,9,0,0,1,1.16-2.55,1.1,1.1,0,0,1,.5-.46c-.12,0-.16-.11-.27,0s-.05.22-.24.35a4.14,4.14,0,0,0-.86,1.21c-.16.4-.54,1.27-.67,1.64s-.24.89-.32,1.13.13.38.38.43a.17.17,0,0,1,.12.08h0c.13-.4.37-.47.74-.9a7.72,7.72,0,0,0,.82-1C454.95,37.78,455.18,37.48,455.22,37.42Z"/>
      <path class="cls-27" d="M460,24.07a3.8,3.8,0,0,0,0-.88c-.09-.5-.43-.27-.57-.69a3.42,3.42,0,0,1-.08-1.06c0-.31-.22-.39-.33-.59a2.75,2.75,0,0,1-.45-1.24,9.8,9.8,0,0,0-.9-2.37c-.2-.36-.88-2.18-1.25-3.24a1,1,0,0,0-.31-.07.91.91,0,0,0-.48.34c.31.76.87,2.09,1.06,2.62.25.71.73,1.94.83,2.32s-.18.38-.19.65.31,0,.39.34a6.34,6.34,0,0,1,.51,1.27,2.92,2.92,0,0,1,.67,0c.22,0,.27.16.27.46a2.19,2.19,0,0,0,.16.67,4.62,4.62,0,0,1,.11.86c0,.24.33.65.35.86a2.13,2.13,0,0,1-.11.92,6,6,0,0,0-.19.92,3.91,3.91,0,0,0,0,1,2.06,2.06,0,0,1-.19.73,8.76,8.76,0,0,1-.3.89c-.11.22-.57.92-1,.65a.34.34,0,0,0-.35,0,6.91,6.91,0,0,1-.43,1A18.16,18.16,0,0,1,455.89,32h0c.57,0,.51.67.49,1a1.66,1.66,0,0,1-.51.78c-.14.14-.14.35-.22.59a2.37,2.37,0,0,1-.15.38c.26-.31.28-.7.36-.83s.6-.67,1.37-1.74c0,.08,0,.17,0,.26a7.33,7.33,0,0,1,.58-.83l-.07-.2c1-1.42,2.23-3.6,2.39-5.06A4.78,4.78,0,0,0,460,24.07Z"/>
      <path class="cls-26" d="M456.38,33.56a3.06,3.06,0,0,0-.29.68,2.91,2.91,0,0,0,.18-.28,7,7,0,0,1,.38-.59A.42.42,0,0,0,456.38,33.56Z"/>
      <path class="cls-26" d="M455.66,35.93c-.13-.08-.16-.28-.21-.48-.14.22-.29.43-.39.59s.16.11.41.16S455.79,36,455.66,35.93Z"/>
      <path class="cls-25" d="M455.72,12.3l-.31-.59-.74-1.24L454,9.35l-.9-1.08-.81-1-.8-.93-.4-.45c-.07.11,0,.27-.08.42a4.46,4.46,0,0,0-.2.66c0,.27.11.38.23.59a.47.47,0,0,1-.09.61.85.85,0,0,0-.38.59.58.58,0,0,0,.17.55c.36.26.91.22,1.2.61.16.21,0,.37-.18.48l-.41.23a1,1,0,0,0-.32.18c-.19.21,0,.47.24.54a2.61,2.61,0,0,1,.36.15,1.77,1.77,0,0,0,.36.08,1.32,1.32,0,0,1,.51.15c.08.06.11.19.17.26.36.46,1,.4,1.53.43a.67.67,0,0,1,.4.08c.25.22-.12.39-.2.53s.39.32.56.36a1,1,0,0,0,.41.08,1,1,0,0,0,.28-.15c.13-.08.26-.09.39-.15h0Z"/>
      <path class="cls-28" d="M451.25,6l1.09,1.42a2.87,2.87,0,0,0-.85.07,1.39,1.39,0,0,1,1.08.35,10.09,10.09,0,0,1,.86,1,6.1,6.1,0,0,1,.43.51,5.52,5.52,0,0,0-1.47,0,3.37,3.37,0,0,1,1.62.33c.31.24.34.52.56.82a5.32,5.32,0,0,1,.42.75l-1.13,0c-.25,0,.2.1.43.12l.65.08c.14,0,.27,0,.35.2l.31.73s.47.27,0-.63-1-1.51-1-1.74.18-.2.31-.41a1.45,1.45,0,0,0,.06-.74,1.62,1.62,0,0,1,0-.41,2.75,2.75,0,0,0-.17.7c0,.33-.12.45-.27.45s-.24-.07-.49-.4-.39-.4-.43-.56a7.77,7.77,0,0,1,0-1s-.08.94-.22.86-.27-.41-.53-.65-.19-.41-.21-.77,0-.22-.09.11-.17.06-.44-.28A7.83,7.83,0,0,0,451.25,6Z"/>
      <path class="cls-29" d="M455.88,14.67c.13.41.55.57.8.92s.56.57.81.88.62.59.46.9c-.09.16-.34.18-.42.34a1.46,1.46,0,0,0-.12.6c0,.5.49.57.77.86.13.13.15.21.36.27s.35.06.46.18c.3.31-.41.49-.11.86s.75.27.86.59-.14.27-.18.41a.38.38,0,0,0,.17.42.88.88,0,0,1,.24.9c-.05.19-.54.56-.34.82a.45.45,0,0,0,.41,0c.15-.08.14-.29.17-.43a3,3,0,0,1,.27-.76c.1-.21.24-.41.33-.63a3.56,3.56,0,0,0,.1-.51,4.16,4.16,0,0,1,.52-.91,1.7,1.7,0,0,0,.23-1c-.14-.49-.68,0-.75-.28s.23-.48.34-.65a1.37,1.37,0,0,0,.25-.71,2.27,2.27,0,0,0-.09-1c-.07-.15-.1-.31-.3-.3s-.21.17-.28.33-.26.68-.59.61-.09-.43,0-.57a2.19,2.19,0,0,0,.32-.86c0-.17,0-.32,0-.48,0-.48-.3-.83-.33-1.27,0-.15-.09-1.09-.41-.71-.08.1,0,.35-.21.4s-.23-.18-.22-.33a4.19,4.19,0,0,0,.1-1,1.22,1.22,0,0,0-.2-.43c-.12-.19-.29-.35-.4-.55s-.13-.35-.35-.23-.25.23-.45.11-.14-.32-.14-.47c0-.46-.15-.52-.53-.69-.15-.07-.57-.54-.77-.43s.08.68,0,.91-.19.17-.31.25a1,1,0,0,0-.27.36,2.52,2.52,0,0,0-.61,1.43A7.46,7.46,0,0,0,455.88,14.67Z"/>
      <path class="cls-12" d="M459.06,13.05s.12.67-.33.92,0,.84.21,1.27a6.85,6.85,0,0,1,.43.94,1.31,1.31,0,0,0,.53-1.06C459.86,14.26,459.31,14.28,459.06,13.05Z"/>
      <path class="cls-12" d="M460.38,20s.68-.77.84-.79.26,0,0,.38a6.41,6.41,0,0,0-.51,1.21,1.72,1.72,0,0,1-.35.55A6,6,0,0,0,460.38,20Z"/>
      <path class="cls-12" d="M460,18.83a9,9,0,0,0,.94-1.35c0,.59-.06.68-.71,1.68A.5.5,0,0,0,460,18.83Z"/>
      <path class="cls-12" d="M456.77,10.09a4,4,0,0,0,.48,1.47,2.9,2.9,0,0,1,.61,1.78c-.68-.53-1-1-1.27-1.11s.2-.25,0-.7,0-.33.12-.37S456.66,10.63,456.77,10.09Z"/>
      <path class="cls-12" d="M459.39,16.94a4.45,4.45,0,0,1-1.23-.55l-.06-.47a3.58,3.58,0,0,0,1.13.51,14.23,14.23,0,0,1-1-2.11c-.33-.63-.86-.63-1.17-.86a4.3,4.3,0,0,1-.81-1c.2,1.18-.68.14-.68.14l-.1.55a8.77,8.77,0,0,0,.41,1.5c.13.41.55.57.8.92s.56.57.81.88.62.59.46.9c-.08.16-.33.18-.42.33l.84.5a3.14,3.14,0,0,1,1,.92c.14.29.16.32-.35.1-.88-.38-.11-.13-.26.29a.45.45,0,0,1,.21.11c.3.31-.41.49-.11.86s.75.27.86.59-.14.27-.18.41a.38.38,0,0,0,.17.42.88.88,0,0,1,.28.65l0,0A11,11,0,0,0,459.39,16.94Z"/>
      <path class="cls-10" d="M419.16,24.94c-.29.1-.1.94-.1,1.33a8.28,8.28,0,0,0,.26,3.35,11.62,11.62,0,0,0,1.52,3.27,38.69,38.69,0,0,0,2.59,3.32c.34.31.7.71,1,1s.67.59.86.72a1.74,1.74,0,0,0,.67.2c.12,0,.23-.39-.14-.49s-.55-.18-.86-.73-.65-1.33-.94-1.88a5,5,0,0,1-.51-2,16.08,16.08,0,0,0-1.35-3.57A13.39,13.39,0,0,0,420.85,27c-.26-.43-.84-1.33-1-1.67S419.48,24.83,419.16,24.94Z"/>
      <path class="cls-30" d="M423.71,10.16c-.34-.14-1,.78-1.51,1.55a17.93,17.93,0,0,0-2.08,4.8,17.43,17.43,0,0,0-.23,5.47,4.68,4.68,0,0,0,1,2.92c.61.67.88-.29.51-.25s-.47,0-.49-.53a14,14,0,0,1,.75-3.24c.45-1.43,1-3.43,1.51-5.8S424.28,10.4,423.71,10.16Z"/>
      <path class="cls-31" d="M429.13,5.26c-.3-.16-1,.43-2.14,1.77a23.19,23.19,0,0,0-2.81,4.92c-.53,1.14-1.06,2.79-1.35,3.49s-.84,2.63-.57,2.28.84-1.39,1.23-2.06,1.67-2.27,2.33-3.22a35.47,35.47,0,0,0,2.33-3.9C428.73,7.38,429.54,5.48,429.13,5.26Z"/>
      <path class="cls-8" d="M437.62,2.27c-.13-.16-.76.05-1,.16s-.68.39-1.18.58a8.63,8.63,0,0,0-2.54,1.39,21.18,21.18,0,0,0-2.67,2.54,25.22,25.22,0,0,0-2.33,2.58c-.11.19-.09.49.47.14s4.29-2.93,5.41-3.61,2.54-1.31,3.22-2.25S437.83,2.53,437.62,2.27Z"/>
      <path class="cls-32" d="M428.31,6.46a43.71,43.71,0,0,0-2.87,4.25,42.42,42.42,0,0,0-2.53,4.84l-.06.4s1.46-3,2.47-4.67Z"/>
      <path class="cls-33" d="M425.85,37.62c-.37-.1-.55-.18-.86-.73s-.65-1.33-.94-1.88a5,5,0,0,1-.51-2,16.08,16.08,0,0,0-1.35-3.57A13.39,13.39,0,0,0,420.85,27c-.26-.43-.84-1.33-1-1.67s-.33-.54-.65-.43-.1.94-.1,1.33a8.28,8.28,0,0,0,.26,3.35,11.62,11.62,0,0,0,1.52,3.27c.11.18.44.64.83,1.15h0a5.83,5.83,0,0,0,1.24,1.14,1.09,1.09,0,0,0-.18-.3,7,7,0,0,1-.43-.67l-.26-.28h.16s-1.21-2.61-1.7-4.05a42.19,42.19,0,0,1-1.29-4.8,56.12,56.12,0,0,0,2.37,7,24.1,24.1,0,0,0,2.79,4.71c.65.77,1.15,1,1.27,1.24.14,0,.28.05.34.06S426.22,37.72,425.85,37.62Z"/>
      <path class="cls-10" d="M436.48,4.32a16,16,0,0,0-4.63,2.2c-2.23,1.58-2.63,1.84-2.63,1.84s1.15-1,1.5-1.38a9.24,9.24,0,0,1,1.62-1.42l1.92-1.21s-1.64.85-2,1.07a8.08,8.08,0,0,0-1.3,1,.92.92,0,0,1-.2.16A12.43,12.43,0,0,1,435,3.2a4.46,4.46,0,0,0,1.3-.67,7.51,7.51,0,0,1-.94.47,8.63,8.63,0,0,0-2.54,1.39,21.18,21.18,0,0,0-2.67,2.54,25.22,25.22,0,0,0-2.33,2.58c-.11.19-.09.49.47.14s4.29-2.93,5.41-3.61A19,19,0,0,0,436.48,4.32Z"/>
      <path class="cls-31" d="M438.25,4.23c0-.26-1.78-.16-5,1.62A13.2,13.2,0,0,0,428.71,10c-.26.24,1.73-.76,3.37-1.39a23.21,23.21,0,0,0,4.08-2.25C437.26,5.72,438.23,4.7,438.25,4.23Z"/>
      <path class="cls-32" d="M436.34,4.95a46.32,46.32,0,0,1-6.29,4C432,8.24,435.85,6,436.34,4.95Z"/>
      <path class="cls-33" d="M430.8,7.71c-.39-.1-1.52,1-2.28,2.09s-1.8,2.54-2.12,3a4.74,4.74,0,0,0-.94,1.94c0,.6-.81,1-.55,2.72s3.19-3.56,4.39-4.94A7.29,7.29,0,0,0,431,9C431.14,8.31,431.19,7.81,430.8,7.71Z"/>
      <path class="cls-8" d="M421.44,24.66c-.37,0-.47,0-.49-.53a14,14,0,0,1,.75-3.24c.45-1.43,1-3.43,1.51-5.8s1-4.47.58-4.87c-.75,1.16-3.26,5.56-3.39,13.26,0,.21,0,.42,0,.61a3.43,3.43,0,0,0,.54.82C421.53,25.58,421.81,24.62,421.44,24.66Z"/>
      <path class="cls-10" d="M421.27,13.42a19.13,19.13,0,0,0-1.15,3.1,17.43,17.43,0,0,0-.23,5.47,4.68,4.68,0,0,0,1,2.92,1,1,0,0,0,.17.15h0c0-.31-.27-.48-.35-.62s-.3-.21-.2-.55-.08-.45-.08-.91a39.74,39.74,0,0,1,.65-6,27.93,27.93,0,0,0-.79,5.34c0,.47-.06.77-.1.65a5.46,5.46,0,0,1-.14-1.21c0-.51-.1-1.19-.1-1.44a11.65,11.65,0,0,1,.28-3.92A22.49,22.49,0,0,1,421.27,13.42Z"/>
      <path class="cls-10" d="M426.63,12.5l-.22.33a4.74,4.74,0,0,0-.94,1.94c0,.6-.81,1-.55,2.72h0a.67.67,0,0,0,.36-.28c.41-.55,2.86-4.28,2.94-4.36s.4-.63,0-.42-.22,0,0-.34a20.67,20.67,0,0,0,1.6-3s-.45.83-1.7,2.61-1.46,2-1.84,2.49-.34-.39,0-.79A2.64,2.64,0,0,0,426.63,12.5Z"/>
      <path class="cls-30" d="M422.76,23.64c-.17.39-.16.59-.3.76s-.13.32,0,.4.22-.08.35-.46a5.59,5.59,0,0,1,.92-1.49c.35-.38,1.49-2.05,2.27-3.13A14.84,14.84,0,0,0,428,16c.45-1.31.89-3,.47-3.32s-2.28,2.38-3,3.56a15.9,15.9,0,0,0-1.8,3.61C423.24,21,423.14,22.75,422.76,23.64Z"/>
      <path class="cls-8" d="M427.64,15.66c-.21-.16.45-1.8.45-1.8s-1,1.83-1.39,1.67.68-1.48.68-1.48-1.2,1.68-1.36,1.63.16-.54.41-1c-.39.55-.76,1.1-1,1.49a15.9,15.9,0,0,0-1.8,3.61c-.4,1.22-.5,2.93-.88,3.83-.17.39-.16.59-.3.76s-.13.32,0,.4.22-.08.35-.46a5.59,5.59,0,0,1,.92-1.49c.35-.38,1.49-2.05,2.27-3.13A14.84,14.84,0,0,0,428,16c.13-.4.27-.82.38-1.23C428.12,15.2,427.77,15.75,427.64,15.66Z"/>
      <path class="cls-10" d="M428.46,14.44a13,13,0,0,0-1,2.62,7.35,7.35,0,0,1-1.72,2.79,8,8,0,0,0,.44-1.25A4.73,4.73,0,0,1,425.4,20a8.37,8.37,0,0,0-.89,1.89c.47-.66,1.05-1.5,1.51-2.14A14.84,14.84,0,0,0,428,16c.17-.49.33-1,.45-1.53Z"/>
      <path class="cls-10" d="M428.63,24.64c-.33,0-1.61.88-3.18,3.71A10.83,10.83,0,0,0,423.89,34a1.62,1.62,0,0,0,.49.94c.18.12.31,0,.2-.25a1.15,1.15,0,0,1,0-1c.18-.31.74-1.41,1-1.8s1.47-2.39,2-3.31a8.88,8.88,0,0,0,1.08-2.11C428.9,25.67,429,24.62,428.63,24.64Z"/>
      <path class="cls-33" d="M425.56,31.89l.16-.26a2.7,2.7,0,0,1-.29-1c-.48.36-.88,1.91-1.23,3.08.43-2.39.91-3.2,1.2-3.47,0-.2,0-.38,0-.55a3.66,3.66,0,0,0-.95,1,8.7,8.7,0,0,0-.56,3.38,1.62,1.62,0,0,0,.49.94c.18.12.31,0,.2-.25a1.15,1.15,0,0,1,0-1C424.73,33.38,425.3,32.29,425.56,31.89Z"/>
      <path class="cls-10" d="M429.62,26.46c-.18-.2-.84.49-1.71,2.12a16,16,0,0,0-1,5.94c.1.45,1.08-1.88,1.63-2.78a8.8,8.8,0,0,0,1-3.14A4.61,4.61,0,0,0,429.62,26.46Z"/>
      <path class="cls-8" d="M428.56,28.76a5.91,5.91,0,0,1,1.13-2.08.41.41,0,0,0-.07-.21c-.18-.2-.84.49-1.71,2.12a16,16,0,0,0-1,5.94c.09.4.86-1.36,1.41-2.4C428.51,30.63,428.21,29.94,428.56,28.76Z"/>
      <path class="cls-10" d="M427.22,23.77c-.25,0-.73,1.37-.9,2.43a44.4,44.4,0,0,0-.31,5.33c.06.69.27,3.18.39,3.63a10.68,10.68,0,0,1,.41,1.59c0,.33,0,.63-.14.69s0,.26.18.22.28-.18.3-.49.1-.69.16-1.16a14.36,14.36,0,0,1,.39-2.16,12.83,12.83,0,0,0,.43-2.1,20.33,20.33,0,0,0,.18-4.59C428.12,24.64,427.56,23.72,427.22,23.77Z"/>
      <path class="cls-33" d="M428.3,27.17c-.18-2.53-.75-3.45-1.08-3.39s-.73,1.37-.9,2.43a44.4,44.4,0,0,0-.31,5.33c0,.52.18,2.06.29,3h0c.19.27.51.8.47.44a31,31,0,0,1,.08-3.1c.08-1,.26-4.19.26-4.19,0,1.17,0,3.12-.08,5.51A8.19,8.19,0,0,0,427.3,36h0a14.36,14.36,0,0,1,.39-2.16,12.83,12.83,0,0,0,.43-2.1A20.33,20.33,0,0,0,428.3,27.17Z"/>
      <path class="cls-34" d="M435.9,48.86c.35-.29.78-.48,1-.4s.05.33-.25.4a1.83,1.83,0,0,0-.88.51,1.86,1.86,0,0,1-.44.43c-.14.09-.29,0-.1-.22S435.63,49.09,435.9,48.86Z"/>
      <path class="cls-21" d="M434.68,50.14c-.13.1-.29.24-.19.3s.18,0,.25-.09.16-.16.1-.22S434.68,50.14,434.68,50.14Z"/>
      <path class="cls-34" d="M446.95,48.69c-.09-.06-.26.05-.13.18a13.22,13.22,0,0,0,1.36,1.07c.37.22.46.3.63.28s.46-.05.34-.18a3.75,3.75,0,0,0-.78-.41C447.94,49.41,447.16,48.82,446.95,48.69Z"/>
      <path class="cls-10" d="M455.39,36.15c.25.05.42-.06.23-.29a.73.73,0,0,1-.21-.69c0-.39,0-.41-.19-.42s-.16.24-.15.36.08.18,0,.46S455,36.06,455.39,36.15Z"/>
      <path class="cls-34" d="M452.43,38.69c-.18.27-.4.31-.59.63a.69.69,0,0,0,0,.82c.17.23.4.08.44-.27s.21-.46.31-.67.19-.34.13-.5S452.53,38.54,452.43,38.69Z"/>
      <path class="cls-35" d="M435.09,43.23a7.34,7.34,0,0,1-1.13-.59c0-.08.48-.34.48-.34l-.61-.34s0,.25-.32.25a1,1,0,0,1-.8-.38c-.34-.23-1.37-1.07-1.68-1.3s-1-.65-1-.65-.17.25-.27.25-.19,0,0,.19,1.2.8,1.37.95,0,.27-.17.17-1-.61-1-.61.8.73,1.11.95,2.25,1.35,2.5,1.49a5.82,5.82,0,0,0,.69.32A8.37,8.37,0,0,1,435.09,43.23Z"/>
      <path class="cls-34" d="M454.53,34.72a10,10,0,0,0-1.37,2.46c-.08.63.17.34.23,0A5.15,5.15,0,0,1,454,35.9c.17-.25.53-.84.63-1S454.69,34.5,454.53,34.72Z"/>
      <path class="cls-34" d="M455.71,33.14c-.07.21,0,.44.1.21s.21-.46.32-.63,0-.27-.13-.13A2.45,2.45,0,0,0,455.71,33.14Z"/>
      <path class="cls-34" d="M434.65,51.7c0,.18-.21.27-.72.23a2.34,2.34,0,0,1-1.34-.71c-.23-.27-.21-.33-.6-.37s-.28-.17-.19-.25a.65.65,0,0,1,.63-.08,2.15,2.15,0,0,0,.75.18C433.54,50.75,434.84,51,434.65,51.7Z"/>
      <path class="cls-34" d="M450.12,50.17c.14.14.09.37-.2.52s-.59.1-.81.32a2.45,2.45,0,0,1-.79.59c-.37.15-.86.1-.94,0a.47.47,0,0,1,.19-.54,3.49,3.49,0,0,1,.65-.43c.24-.09.51-.11.83-.22s.35-.32.55-.36A.52.52,0,0,1,450.12,50.17Z"/>
      <path class="cls-34" d="M459,26.31a12.78,12.78,0,0,1-.46,1.69c-.15.34.11.4.25.08a10.74,10.74,0,0,0,.4-1.66C459.2,26.12,459,26,459,26.31Z"/>
      <path class="cls-26" d="M458.61,24s-.09,0-.08.05,0,.54.09.74-.06.45.17.43.35-.09.38-.23-.09-.23-.22-.46a2.86,2.86,0,0,1-.24-.59S458.66,24,458.61,24Z"/>
      <path class="cls-26" d="M433.76,41.46a.77.77,0,0,1-.92.06c0,.13,0,.55.38.6S433.89,42,433.76,41.46Z"/>
      <path class="cls-36" d="M448.82,42.52a.34.34,0,0,1-.17-.05,1.38,1.38,0,0,1-.4-.53.12.12,0,0,1,.09-.14.12.12,0,0,1,.14.09,1.28,1.28,0,0,0,.29.38c.06,0,.07,0,.18-.09a.75.75,0,0,1,.17-.16.48.48,0,0,1,.21-.06l.1,0h0l0,0a.31.31,0,0,1,.11-.11.48.48,0,0,1,.26,0,.34.34,0,0,0,.16,0,1.08,1.08,0,0,0,.22-.21,1,1,0,0,1,.44-.34.15.15,0,0,0,0,0,.12.12,0,0,1,.12-.12.12.12,0,0,1,.12.12.49.49,0,0,1,0,.11s0,0,0,.06a.11.11,0,0,1,0,.09.12.12,0,0,1-.1,0c-.09,0-.24.15-.34.27a1.2,1.2,0,0,1-.28.26.52.52,0,0,1-.28,0,.32.32,0,0,0-.14,0l0,0a.29.29,0,0,1-.11.1.55.55,0,0,1-.17,0,.27.27,0,0,0-.12,0,.55.55,0,0,0-.12.11.44.44,0,0,1-.31.19Z"/>
      <path class="cls-36" d="M451.28,41.07a.32.32,0,0,1-.26-.12.25.25,0,0,1,0-.28.12.12,0,0,1,.21.11s0,0,0,0a.12.12,0,0,0,.1,0,.08.08,0,0,0,.07-.06c0-.08,0-.12-.16-.21a.52.52,0,0,1-.22-.25.12.12,0,0,1,0-.12.12.12,0,0,1,.12,0,.91.91,0,0,1,.28.15.76.76,0,0,0,.22.12c.06,0,.11,0,.2,0a.74.74,0,0,1,.24-.08c.22,0,.24,0,.28-.2l0-.08c0-.23.1-.33.43-.32a.12.12,0,0,1,.11.12.11.11,0,0,1-.12.11c-.16,0-.16,0-.19.13l0,.09c-.07.32-.23.36-.49.38a.57.57,0,0,0-.17.06.52.52,0,0,1-.32.06.33.33,0,0,1,0,.16.32.32,0,0,1-.25.23Z"/>
      <path class="cls-26" d="M452.43,35.53s.08.35.61.15a4.21,4.21,0,0,0-.44.9C452.55,36.76,452.49,36.07,452.43,35.53Z"/>
      <path class="cls-26" d="M453.25,35.47l.69-1S453.68,35.64,453.25,35.47Z"/>
      <path class="cls-15" d="M426,38.25a4.58,4.58,0,0,0,1.31,1.48,6.35,6.35,0,0,0,1.89,1.06.47.47,0,0,0,.56-.29.52.52,0,0,0-.09-.53,1.91,1.91,0,0,0-.59-.28,2.54,2.54,0,0,1,.47.34.36.36,0,0,1,.06.39.33.33,0,0,1-.36.14,6.59,6.59,0,0,1-1.75-.94,4.7,4.7,0,0,1-1.24-1.22,1.39,1.39,0,0,1-.17-.24S426,38.15,426,38.25Z"/>
      <path class="cls-15" d="M429,40.78s0,.51.76.39a31.85,31.85,0,0,0,4.2,2.57l.25-.08a25.46,25.46,0,0,1-2.65-1.49c-1.15-.76-1.73-1.17-1.73-1.17S429.22,41.19,429,40.78Z"/>
      <path class="cls-37" d="M424.31,15.92c-.18,0-.38.7-.44.88a4.67,4.67,0,0,1-.47.89,6.81,6.81,0,0,0-.41,1.06,4.74,4.74,0,0,0-.31.93c-.17,0-.26-.31-.45-.38-.06.23.18.41.22.63a1.66,1.66,0,0,1-.09.69c-.1.39-.15.79-.23,1.2s0,.54-.06.81c-.07.48,0,1-.16,1.47a2.37,2.37,0,0,0-.17.72,1.59,1.59,0,0,0,.19.5.49.49,0,0,0,.45.28.41.41,0,0,0,0-.57.79.79,0,0,1-.21-.62c0-.57.08-1.2.15-1.76s.12-1.14.23-1.69a3.7,3.7,0,0,1,.19-.69c.06-.15.19-.24.22-.42s0-.25,0-.37a5.59,5.59,0,0,1,.4-1.29c.06-.13.15-.21.19-.34s0-.28.07-.4.18-.16.28-.25.17-.23.21-.46,0-.66.18-.82"/>
      <path class="cls-15" d="M424.94,33.59a4.62,4.62,0,0,0,.92,3.75c-.08-.49-.5-.95-.72-1.74a5.11,5.11,0,0,1-.12-1.95Z"/>
      <path class="cls-15" d="M425.9,12.91a29.17,29.17,0,0,0-2.14,3.7,5.94,5.94,0,0,0,1-1.54c.07-.13.57-1,.68-1.14s.27-.56.37-.64S425.9,12.91,425.9,12.91Z"/>
      <path class="cls-15" d="M423.4,17.36s-.53,1.24-.87,2.15c.12-.11.3-.19.32-.38s.25-.49.26-.71a2.8,2.8,0,0,1,.3-.73A1.16,1.16,0,0,0,423.4,17.36Z"/>
      <path class="cls-15" d="M422.21,20.57a12.2,12.2,0,0,0-.43,3.22,1.65,1.65,0,0,0,.25-1.1,3.9,3.9,0,0,1,.05-1,1.48,1.48,0,0,1,.16-.61A.86.86,0,0,0,422.21,20.57Z"/>
      <path class="cls-22" d="M455.49,12.49a.87.87,0,0,0,.81.61,3.27,3.27,0,0,1,.66,1.17c0,.2-.57.27-.45.49s.34.32.45.43.67.28.87.52a1,1,0,0,1,.27.75,4,4,0,0,0,0,.72c0,.17-.12.1-.3,0s-.12.05-.45-.37-1.11-.8-1.33-1.19,0-.72,0-1.08-.24-.48-.42-.65-.14-.38-.18-.56A1.48,1.48,0,0,1,455.49,12.49Z"/>
      <path class="cls-29" d="M452.8,12.62a.54.54,0,0,1,0,.31,1.41,1.41,0,0,0-.1.35c0,.23-.19.39-.2.61s.19.41.13.6-.16.12-.24.16a.5.5,0,0,0-.26.28.54.54,0,0,0,0,.39c0,.1.06.22.11.33a.83.83,0,0,0,.19.29c.08.08.24.13.3.23a.26.26,0,0,1-.1.34c-.11.07-.23,0-.34.09s-.13.52-.07.75a1.62,1.62,0,0,0,.42.55,1.24,1.24,0,0,0,.47.25,4.47,4.47,0,0,0,.5.2l.6.15a.71.71,0,0,1,.32.2c.24.2.42.47.67.67s.4.32.58.5a.71.71,0,0,1,.17.3,4,4,0,0,0,.3.93l.08.14a1.72,1.72,0,0,0,.24.29,1,1,0,0,1,.19.34,3.45,3.45,0,0,0,.56,1,2,2,0,0,0,.47.45,1.82,1.82,0,0,1,.49.53c.06.09.11.23.25.21.3-.05.33-.61.39-.83.11-.42.06-1.27-.6-1-.2.08-.44.34-.65.1s0-.68.11-.9A1.61,1.61,0,0,1,458,21a.73.73,0,0,0,.16-.34c0-.24-.06-.45-.32-.44s-.41.39-.63.31-.16-.39-.16-.57a4.66,4.66,0,0,1,.2-.94c0-.24.17-.55,0-.73a.81.81,0,0,0-.23-.17c-.1,0-.23,0-.3-.08s0-.45.17-.5a1.32,1.32,0,0,0,.6-.48.39.39,0,0,0,.1-.33,2.82,2.82,0,0,1,0-.72c.06-.22.26-.39.19-.65s-.37-.22-.59-.22c-.54,0-.78.53-1.12.86a.47.47,0,0,1-.63,0c-.17-.2,0-.44.16-.59a1.15,1.15,0,0,1,.34-.27c.41-.25.32-.85.09-1.19,0-.06-.06-.06-.08-.13s0-.1,0-.14a1.42,1.42,0,0,0-.1-.34c-.1-.18-.38-.4-.48-.1a2.41,2.41,0,0,1-.21.68c-.1.14-.38.46-.48.14s.09-.5.06-.74-.18-.35-.4-.39a.77.77,0,0,1-.29-.14c-.23-.19-.37-.44-.69-.49S452.77,12.34,452.8,12.62Z"/>
      <path class="cls-12" d="M456.43,17.37c.06-.43-.34-.38-.43-.17s-.15.21-.32.13-.24-.41-.34-.92-.23-.88-.62-1a2,2,0,0,1-1-1.09c0-.28.13-1.11-.17-1.28a2.28,2.28,0,0,1-.58-.74.3.3,0,0,0-.21.35.54.54,0,0,1,0,.31,1.41,1.41,0,0,0-.1.35c0,.23-.19.39-.2.61s.19.41.13.6-.16.12-.24.16a.5.5,0,0,0-.26.28.54.54,0,0,0,0,.39c0,.1.06.22.11.33a.83.83,0,0,0,.19.29c.08.08.24.13.3.23a.26.26,0,0,1-.1.34c-.11.07-.23,0-.34.09s-.13.52-.07.75a1.62,1.62,0,0,0,.42.55,1.24,1.24,0,0,0,.47.25,4.47,4.47,0,0,0,.5.2l.6.15a.71.71,0,0,1,.32.2c.24.2.42.47.67.67s.4.32.58.5a.71.71,0,0,1,.17.3,2,2,0,0,1,.06.22.12.12,0,0,0,0-.05c.15-.53-.09-.49-.11-.7a8.2,8.2,0,0,0-.68-1.26.51.51,0,0,0-.28-.23l-.45-.17a1,1,0,0,1,.45,0c-.23-.41-.58-1.26-.66-1.39s-.28-.11-.49-.24-.36-.41-.23-.32a4.35,4.35,0,0,0,.68.24,2.71,2.71,0,0,1-.13-.45c0-.24-.19-.88-.19-.88a2,2,0,0,1,.32.62,2.91,2.91,0,0,0,.21.56s.11-.43.3-.53.28.09.13.21a1.32,1.32,0,0,0-.32.68,12.39,12.39,0,0,0,1,2.14s.13-.38.24-.85.17-.11.17.13a6.42,6.42,0,0,1-.25,1s.36.79.32.49a2.86,2.86,0,0,1,.19-1C456.36,18.16,456.36,17.8,456.43,17.37Z"/>
      <path class="cls-27" d="M456.58,35a1.09,1.09,0,0,0-.28-1.09,1.43,1.43,0,0,1,.54-.59c.18-.11.43-.23.44-.87s.43-.75.63-.15a1.75,1.75,0,0,1-.21,1.4A4.74,4.74,0,0,1,456.58,35Z"/>
      <path class="cls-38" d="M458.51,28.39a1.42,1.42,0,0,0-1,.14c-.36.26-.12.56.07.84a.5.5,0,0,1,.09.46,1.81,1.81,0,0,1-.13.47,1.52,1.52,0,0,1-.25.42,1.11,1.11,0,0,0-.17.45,1,1,0,0,0,0,.51c.07.21.27.31.4.46s.53.57.15.76c-.15.08-.27,0-.39.17a.59.59,0,0,0-.06.48c0,.16.1.37,0,.51s-.32.11-.41.32,0,.34.13.54,0,.39-.14.58a2.55,2.55,0,0,0-.19.61,2,2,0,0,1-.38.79c-.08.11-.12.26-.3.23s-.18-.17-.28-.21c-.26-.12-.52.2-.48.46a1,1,0,0,0,1,0c.13-.08.23-.23.38-.28s.35,0,.51,0,.32-.16.5-.27a2.46,2.46,0,0,1,.74-.24c.22-.06.51-.1.59-.31a.6.6,0,0,0,0-.48c-.08-.14-.27-.23-.24-.43s.22-.26.35-.36.32-.3.5-.42.46-.23.63-.53a3.23,3.23,0,0,1,.34-.51.91.91,0,0,0,.22-.68c-.18-.09-.34,0-.52,0,0-.19.12-.27.23-.38a6.19,6.19,0,0,0,.67-.94,2.26,2.26,0,0,0,.29-.61c.1-.28.28-.52.41-.8s.29-1.33-.34-1.3c-.15,0,0-1.7-.69-1.76-.27,0-.48.19-.68.36a4.78,4.78,0,0,0-.51.67A1.14,1.14,0,0,1,458.51,28.39Z"/>
      <path class="cls-39" d="M459.28,32.83a3.69,3.69,0,0,0-.64-3c-1.07-1.25-.82-1.05-.51-1.16s.34-.39,1.1.11.64.67.64.75.13-.3.32-.34.28-.32.06-.64-.24-.37,0-.22.15.43.22.15a5.65,5.65,0,0,0,.17-.71c0-.15.11.17,0,.52s0,.47.17.21.13-.75.15-.26,0,.67.28.64.45,0,.58.41-.28,1.31-.47,1.74a5.68,5.68,0,0,1-.69,1.14c-.23.3-.26.54-.56.71S459.2,33.6,459.28,32.83Z"/>
      <path class="cls-39" d="M457.95,31.37s1.13.49.68,2.73.11.85.24.06S459.13,31.8,457.95,31.37Z"/>
      <path class="cls-10" d="M460.06,32.95c0-.19.12-.27.23-.38a1.65,1.65,0,0,0,.18-.2c-.06-.09,0-.34.26-1,0,0-.55.72-.8.49a7.65,7.65,0,0,1,.33-1.45c.06-.18-.2.33-.37.65s0,.41-.21.9-.35.41-.37.65,0,.8-.29,1-.41.53-.57.61-.22.61-.33.88a5.72,5.72,0,0,1-.45.86c-.12.18-.23.63-.43.67a1,1,0,0,0-.59.35c-.19.21-.25.08-.46.4a.8.8,0,0,1,.27-.19c.16,0,.35,0,.51,0s.32-.16.5-.27a2.46,2.46,0,0,1,.74-.24c.22-.06.51-.1.59-.31a.6.6,0,0,0,0-.48c-.08-.14-.27-.23-.24-.43s.22-.26.35-.36.32-.3.5-.42.46-.23.63-.53a3.23,3.23,0,0,1,.34-.51.91.91,0,0,0,.22-.68C460.4,32.87,460.23,33,460.06,32.95Z"/>
      <path class="cls-40" d="M455.61,36.21c.09,0,.12-.1.14-.16a.49.49,0,0,0,0-.38,1.29,1.29,0,0,1-.08-.23c0-.07,0-.17.11-.1s0,.14.07.19a.86.86,0,0,0,.08.08,1.64,1.64,0,0,0,.28.22c.1.08-.14.41-.17.44s-.22.37-.39.58c0,0,0,0-.09,0s-.33.26-.4.21,0-.17,0-.26,0-.3.14-.39.08-.1.17-.13Z"/>
      <path class="cls-40" d="M455.23,37a2,2,0,0,0-.13.28c0,.1,0,.17,0,.19s-.13.19-.13.19a2.88,2.88,0,0,1-.42.44c-.28.24-.25.32-.39.47s-.26.31-.36.29-.21,0-.24-.09-.14-.12.1-.28a2.89,2.89,0,0,0,.57-.47c.18-.18.41-.37.49-.46s.18-.17.21-.25a1.33,1.33,0,0,1,.11-.42C455.18,36.73,455.28,36.8,455.23,37Z"/>
      <path class="cls-15" d="M429.6,39.71a1.6,1.6,0,0,1,.75.37C430.7,40.39,429.86,39.94,429.6,39.71Z"/>
      <path class="cls-35" d="M427.42,36.36a2.47,2.47,0,0,0,.21.39,7.55,7.55,0,0,1,.39.74c.06.14.15.3.2.44s.14.3.19.46.17.43.25.65,0,.44.29.49.34.16.44.11,0-.32-.05-.41-.16-.24-.22-.37-.23-.38-.33-.58-.23-.41-.32-.63a4.36,4.36,0,0,0-.27-.59,4.71,4.71,0,0,1-.31-.66c-.06-.14-.15-.27-.22-.41s-.05-.27-.15-.29-.09.16-.1.23A1,1,0,0,0,427.42,36.36Z"/>
      <path class="cls-27" d="M426.64,11.84a17.86,17.86,0,0,1,1.95-2.34c.38-.3.34-.26.24-.12L428,10.61c-.14.2,0-.27-.26.13s-.26.15-.43.4S427.09,11.76,426.64,11.84Z"/>
      <rect class="cls-19" width="78.81" height="53.53"/>
      <path class="cls-19" d="M39.41,27.26"/>
      <rect class="cls-41" x="1.52" y="1.47" width="75.78" height="50.52"/>
      <path class="cls-41" d="M39.41,26.73"/>
      <polygon class="cls-42" points="37.79 12.47 39.39 11.31 40.99 12.47 40.38 10.59 42 9.42 40 9.42 39.39 7.51 38.78 9.42 36.78 9.42 38.4 10.59 37.79 12.47"/>
      <polygon class="cls-42" points="29.52 14.7 31.11 13.53 32.71 14.7 32.1 12.81 33.73 11.64 31.73 11.64 31.11 9.73 30.5 11.65 28.5 11.64 30.12 12.81 29.52 14.7"/>
      <polygon class="cls-42" points="25.06 15.8 24.45 17.71 22.45 17.71 24.07 18.88 23.46 20.77 25.06 19.6 26.66 20.77 26.05 18.88 27.67 17.71 25.67 17.71 25.06 15.8"/>
      <polygon class="cls-42" points="22.84 27.86 24.44 29.03 23.83 27.14 25.45 25.98 23.45 25.98 22.84 24.07 22.23 25.98 20.22 25.98 21.85 27.14 21.24 29.03 22.84 27.86"/>
      <polygon class="cls-42" points="25.67 34.27 25.06 32.35 24.45 34.27 22.45 34.27 24.07 35.43 23.46 37.32 25.06 36.15 26.66 37.32 26.05 35.43 27.67 34.27 25.67 34.27"/>
      <polygon class="cls-42" points="31.74 40.33 31.13 38.42 30.52 40.34 28.51 40.33 30.14 41.5 29.53 43.39 31.13 42.22 32.73 43.39 32.12 41.5 33.74 40.33 31.74 40.33"/>
      <polygon class="cls-42" points="40 42.53 39.39 40.62 38.78 42.53 36.78 42.53 38.4 43.7 37.79 45.59 39.39 44.42 40.99 45.59 40.38 43.7 42.01 42.53 40 42.53"/>
      <polygon class="cls-42" points="48.27 40.33 47.66 38.42 47.04 40.34 45.04 40.33 46.66 41.5 46.06 43.39 47.66 42.22 49.26 43.39 48.65 41.5 50.27 40.33 48.27 40.33"/>
      <polygon class="cls-42" points="54.34 34.27 53.72 32.35 53.11 34.27 51.11 34.27 52.73 35.43 52.12 37.32 53.72 36.15 55.32 37.32 54.71 35.43 56.34 34.27 54.34 34.27"/>
      <polygon class="cls-42" points="58.53 25.95 56.53 25.95 55.92 24.04 55.31 25.96 53.3 25.95 54.93 27.12 54.32 29.01 55.92 27.84 57.52 29.01 56.91 27.12 58.53 25.95"/>
      <polygon class="cls-42" points="52.12 20.74 53.72 19.57 55.32 20.74 54.71 18.86 56.34 17.69 54.34 17.69 53.72 15.78 53.11 17.69 51.11 17.69 52.73 18.86 52.12 20.74"/>
      <polygon class="cls-42" points="47.68 9.73 47.07 11.65 45.07 11.64 46.69 12.81 46.08 14.7 47.68 13.53 49.28 14.7 48.67 12.81 50.3 11.64 48.29 11.64 47.68 9.73"/>
      <path class="cls-43" d="M7.74,58.88v3.9c0,1.46.65,2.09,1.53,2.09s1.6-.64,1.6-2.09v-3.9h.86v3.84c0,2-1.06,2.84-2.49,2.84s-2.36-.76-2.36-2.81V58.88Z"/>
      <path class="cls-43" d="M13.17,62c0-.5,0-.89,0-1.28h.76l0,.78h0a1.75,1.75,0,0,1,1.56-.88c.65,0,1.67.39,1.67,2v2.81h-.86V62.73c0-.76-.28-1.39-1.09-1.39A1.26,1.26,0,0,0,14,62.62v2.84h-.86Z"/>
      <path class="cls-43" d="M19.53,59.41a.51.51,0,0,1-.55.53.5.5,0,0,1-.52-.53.52.52,0,0,1,.54-.54A.51.51,0,0,1,19.53,59.41Zm-1,6V60.73h.86v4.72Z"/>
      <path class="cls-43" d="M25.13,63.06a2.31,2.31,0,0,1-2.35,2.51,2.25,2.25,0,0,1-2.26-2.43,2.31,2.31,0,0,1,2.34-2.5A2.23,2.23,0,0,1,25.13,63.06Zm-3.73,0c0,1,.59,1.81,1.42,1.81s1.43-.77,1.43-1.83c0-.8-.4-1.8-1.41-1.8S21.4,62.22,21.4,63.1Z"/>
      <path class="cls-43" d="M26.21,62c0-.5,0-.89,0-1.28h.76l0,.78h0a1.75,1.75,0,0,1,1.56-.88c.65,0,1.67.39,1.67,2v2.81h-.86V62.73c0-.76-.28-1.39-1.09-1.39a1.26,1.26,0,0,0-1.21,1.28v2.84h-.86Z"/>
      <path class="cls-43" d="M32.1,63.25a1.51,1.51,0,0,0,1.62,1.64A3.07,3.07,0,0,0,35,64.64l.16.61a3.84,3.84,0,0,1-1.58.3,2.2,2.2,0,0,1-2.32-2.39,2.28,2.28,0,0,1,2.21-2.54,2,2,0,0,1,2,2.21,2.09,2.09,0,0,1,0,.4Zm2.52-.61a1.22,1.22,0,0,0-1.19-1.38,1.41,1.41,0,0,0-1.32,1.38Z"/>
      <path class="cls-43" d="M42,62.37H39.45v2.37h2.85v.71H38.59V58.88h3.56v.71h-2.7v2.08H42Z"/>
      <path class="cls-43" d="M47.25,64.16c0,.5,0,.93,0,1.3h-.76l0-.77h0a1.76,1.76,0,0,1-1.56.88c-.74,0-1.63-.42-1.63-2.07V60.73h.86v2.6c0,.9.28,1.51,1.05,1.51a1.23,1.23,0,0,0,1.13-.79,1.18,1.18,0,0,0,.08-.44V60.73h.86Z"/>
      <path class="cls-43" d="M48.67,62.21c0-.56,0-1,0-1.47h.75l0,.94h0a1.43,1.43,0,0,1,1.32-1l.23,0v.81a1.34,1.34,0,0,0-.29,0,1.19,1.19,0,0,0-1.15,1.09,2.58,2.58,0,0,0,0,.4v2.52h-.86Z"/>
      <path class="cls-43" d="M56,63.06a2.31,2.31,0,0,1-2.35,2.51,2.25,2.25,0,0,1-2.26-2.43,2.31,2.31,0,0,1,2.34-2.5A2.23,2.23,0,0,1,56,63.06Zm-3.73,0c0,1,.59,1.81,1.42,1.81s1.43-.77,1.43-1.83c0-.8-.4-1.8-1.41-1.8S52.29,62.22,52.29,63.1Z"/>
      <path class="cls-43" d="M57.11,62.28c0-.6,0-1.09,0-1.54h.76l0,.81h0a1.84,1.84,0,0,1,1.68-.91,2.14,2.14,0,0,1,2,2.39,2.24,2.24,0,0,1-2.16,2.54A1.66,1.66,0,0,1,58,64.82h0v2.56h-.85ZM58,63.53a1.34,1.34,0,0,0,0,.35,1.32,1.32,0,0,0,1.29,1c.91,0,1.43-.74,1.43-1.82s-.5-1.75-1.4-1.75A1.35,1.35,0,0,0,58,62.37a1.4,1.4,0,0,0-.06.34Z"/>
      <path class="cls-43" d="M63.13,63.25a1.51,1.51,0,0,0,1.62,1.64,3.07,3.07,0,0,0,1.31-.24l.16.61a3.84,3.84,0,0,1-1.58.3,2.2,2.2,0,0,1-2.32-2.39,2.28,2.28,0,0,1,2.21-2.54,2,2,0,0,1,2,2.21,2.09,2.09,0,0,1,0,.4Zm2.52-.61a1.22,1.22,0,0,0-1.19-1.38,1.41,1.41,0,0,0-1.32,1.38Z"/>
      <path class="cls-43" d="M70.85,64.32a7.94,7.94,0,0,0,.07,1.13h-.77l-.07-.59h0a1.76,1.76,0,0,1-1.44.7,1.34,1.34,0,0,1-1.44-1.36c0-1.14,1-1.76,2.84-1.76v-.1a1,1,0,0,0-1.07-1.08,2.28,2.28,0,0,0-1.24.35L67.5,61a3.05,3.05,0,0,1,1.56-.41c1.44,0,1.79,1,1.79,1.92ZM70,63c-.94,0-2,.15-2,1.06a.75.75,0,0,0,.8.82A1.19,1.19,0,0,0,70,64.14a1,1,0,0,0,0-.27Z"/>
      <path class="cls-43" d="M437.34,62.57c0-.92-.11-2-.11-2.84h0c-.23.76-.5,1.59-.83,2.5l-1.16,3.19h-.64l-1.07-3.13c-.31-.94-.57-1.77-.75-2.56h0c0,.82-.07,1.91-.13,2.91l-.18,2.82h-.81l.46-6.57h1.08l1.12,3.18c.27.81.49,1.53.66,2.21h0c.18-.66.41-1.38.7-2.21l1.17-3.18h1.08l.41,6.57h-.84Z"/>
      <path class="cls-43" d="M440.48,58.88v6.57h-.86V58.88Z"/>
      <path class="cls-43" d="M442.81,58.88v3.9c0,1.46.65,2.09,1.53,2.09s1.6-.64,1.6-2.09v-3.9h.86v3.84c0,2-1.06,2.84-2.49,2.84S442,64.8,442,62.75V58.88Z"/>
      <path class="cls-43" d="M448.27,59a9.87,9.87,0,0,1,1.63-.14,2.72,2.72,0,0,1,1.9.54,1.68,1.68,0,0,1,.52,1.26,1.73,1.73,0,0,1-1.23,1.67v0a1.65,1.65,0,0,1,1,1.33,10.46,10.46,0,0,0,.51,1.8h-.88a8.2,8.2,0,0,1-.43-1.57c-.2-.91-.56-1.25-1.33-1.28h-.8v2.85h-.85Zm.85,3H450c.91,0,1.48-.5,1.48-1.25s-.61-1.22-1.51-1.22a3.73,3.73,0,0,0-.84.07Z"/>
        <text style="fill: rgb(51, 51, 51); font-family: Arial, sans-serif; white-space: pre; font-size: 15px;" x="146.13" y="90.231">10.8.4.A2-FSEPON-INDIRE-2017-1 </text>
    
    </g>
  </g>
  
</svg>