<?xml version="1.0" encoding="utf-8"?>
<!-- Generator: Adobe Illustrator 25.0.0, SVG Export Plug-In . SVG Version: 6.00 Build 0)  -->
<svg version="1.1" id="Livello_1" xmlns="http://www.w3.org/2000/svg" xmlns:xlink="http://www.w3.org/1999/xlink" x="0px" y="0px"
	 viewBox="0 0 480 240" style="enable-background:new 0 0 480 240;" xml:space="preserve">
<style type="text/css">
	.st0{fill:#ffffff;}
</style>
<path class="st0" d="M231.4,35.6c-0.3-1.6-1.3-2.9-2.6-3.7l-8.6-4.8l4-7.3c1.4-2.6,0.5-5.8-2.1-7.3c-2.6-1.4-5.8-0.5-7.3,2.1
	l-4.1,7.3l-8.6-4.8c-1.4-0.8-3-0.9-4.5-0.3c-1.5,0.6-2.6,1.8-3.2,3.3L184,50.8c-0.8,2.5,0.2,5.2,2.5,6.4l3.6,2l-17.7,31.7
	l-15.3-77.8C155.7,5.7,148.7,0,141.2,0H98.3c-7.5,0-14.5,5.7-15.9,13.1L51.2,171.5v0l-10.5,53.3c-0.8,3.9,0.2,7.7,2.5,10.6
	s6,4.5,9.9,4.5h133.1c4,0,7.6-1.6,9.9-4.5c2.4-2.9,3.3-6.8,2.5-10.6l-10.5-53.3l0,0l-12.7-64.4l23.8-42.8l3.6,2
	c0.8,0.4,1.7,0.7,2.6,0.7c1.6,0,3.1-0.7,4.1-2L230.3,40C231.3,38.8,231.7,37.2,231.4,35.6z M92.9,15.1c0.5-2.3,3-4.4,5.4-4.4h42.8
	c2.4,0,4.9,2.1,5.4,4.4l17.8,90.2l-23,41.3c-4.7-2-10-3.5-16.2-4.1v-11.4h8.4c2.9,0,5.3-2.4,5.3-5.3s-2.4-5.3-5.3-5.3h-8.4V89h8.4
	c2.9,0,5.3-2.4,5.3-5.3s-2.4-5.3-5.3-5.3h-8.4V46.8h8.4c2.9,0,5.3-2.4,5.3-5.3s-2.4-5.3-5.3-5.3h-8.4v-9.4c0-2.9-2.4-5.3-5.3-5.3
	c-2.9,0-5.4,2.4-5.4,5.3v9.4H106c-2.9,0-5.3,2.4-5.3,5.3c0,2.9,2.4,5.3,5.3,5.3h8.4v31.5H106c-2.9,0-5.3,2.4-5.3,5.3
	c0,2.9,2.4,5.3,5.3,5.3h8.4v31.5H106c-2.9,0-5.3,2.4-5.3,5.3c0,2.9,2.4,5.3,5.3,5.3h8.4v11.4c-14.8,1.3-24.6,8.2-33.3,14.3
	c-6,4.2-11.5,8-18,9.6L92.9,15.1z M188,228.7c-0.3,0.4-0.9,0.6-1.7,0.6H53.2c-0.8,0-1.4-0.2-1.7-0.6c-0.3-0.4-0.4-1-0.3-1.8
	l9.7-49.2c10.8-1.2,18.7-6.7,26.3-12.1c9.2-6.4,17.9-12.6,32.5-12.6s23.3,6.1,32.5,12.6c7.7,5.4,15.5,10.9,26.3,12.1l9.7,49.2
	C188.5,227.6,188.3,228.3,188,228.7z M176.4,166.5c-6.5-1.6-11.9-5.4-18-9.6c-2.4-1.7-4.9-3.4-7.6-5.1l16.8-30.1L176.4,166.5z
	 M204.4,54.9l-8.8-4.9l7-20.4l15.4,8.6L204.4,54.9z"/>
<path class="st0" d="M249.2,40l20.5,25.1c1,1.3,2.6,2,4.1,2c0.9,0,1.8-0.2,2.6-0.7l3.6-2l23.8,42.8l-12.7,64.4l0,0l-10.5,53.3
	c-0.8,3.9,0.1,7.7,2.5,10.6c2.4,2.9,6,4.5,9.9,4.5h133.1c4,0,7.6-1.6,9.9-4.5s3.3-6.8,2.5-10.6l-10.5-53.3v0L397.1,13.1
	C395.7,5.7,388.7,0,381.2,0l-42.9,0c-7.5,0-14.5,5.7-15.9,13.1l-15.3,77.8l-17.7-31.7l3.6-2c2.3-1.3,3.3-4,2.5-6.4l-10.5-30.7
	c-0.5-1.5-1.7-2.7-3.1-3.3c-1.5-0.6-3.1-0.5-4.5,0.3l-8.6,4.8l-4.1-7.3c-1.4-2.6-4.7-3.5-7.3-2.1c-2.6,1.4-3.5,4.7-2.1,7.3l4,7.3
	l-8.6,4.8c-1.4,0.8-2.3,2.1-2.6,3.7C247.8,37.2,248.2,38.8,249.2,40z M416.4,166.4c-6.5-1.6-11.9-5.4-18-9.6
	c-8.7-6.1-18.4-12.9-33.3-14.3v-11.4h8.4c2.9,0,5.3-2.4,5.3-5.3c0-2.9-2.4-5.3-5.3-5.3h-8.4V88.9h8.4c2.9,0,5.3-2.4,5.3-5.3
	c0-2.9-2.4-5.3-5.3-5.3h-8.4V46.8h8.4c2.9,0,5.3-2.4,5.3-5.3c0-2.9-2.4-5.3-5.3-5.3h-8.4v-9.4c0-2.9-2.4-5.3-5.4-5.3
	s-5.3,2.4-5.3,5.3v9.4h-8.4c-2.9,0-5.3,2.4-5.3,5.3s2.4,5.3,5.3,5.3h8.4v31.5h-8.4c-2.9,0-5.3,2.4-5.3,5.3s2.4,5.3,5.3,5.3h8.4v31.5
	h-8.4c-2.9,0-5.3,2.4-5.3,5.3s2.4,5.3,5.3,5.3h8.4v11.4c-6.2,0.6-11.5,2.1-16.2,4.1l-23-41.3L333,15.1c0.5-2.3,3-4.4,5.4-4.4h42.8
	c2.4,0,5,2.1,5.4,4.4L416.4,166.4z M291.3,226.9l9.7-49.2c10.8-1.2,18.7-6.7,26.3-12.1c9.2-6.5,17.9-12.6,32.5-12.6
	c14.6,0,23.3,6.1,32.5,12.6c7.6,5.4,15.5,10.9,26.3,12.1l9.7,49.2c0.1,0.8,0,1.4-0.3,1.8c-0.3,0.4-0.9,0.6-1.7,0.6H293.2
	c-0.8,0-1.4-0.2-1.7-0.6C291.2,228.3,291.1,227.6,291.3,226.9z M312,121.7l16.8,30.1c-2.7,1.7-5.2,3.4-7.6,5.1c-6,4.2-11.4,8-18,9.6
	L312,121.7z M261.6,38.2l15.4-8.6l7,20.4l-8.8,4.9L261.6,38.2z"/>
</svg>
